<?xml version="1.0" standalone="no"?>
<!DOCTYPE svg PUBLIC "-//W3C//DTD SVG 20010904//EN"
 "http://www.w3.org/TR/2001/REC-SVG-20010904/DTD/svg10.dtd">
<svg version="1.0" xmlns="http://www.w3.org/2000/svg"
 width="700.000000pt" height="700.000000pt" viewBox="0 0 700.000000 700.000000"
 preserveAspectRatio="xMidYMid meet">
<metadata>
Created by potrace 1.14, written by Peter Selinger 2001-2017
</metadata>
<g transform="translate(0.000000,700.000000) scale(0.100000,-0.100000)"
fill="#000000" stroke="none">
<path d="M1392 4267 l-702 -702 0 -200 0 -200 703 703 702 702 703 -702 702
-703 705 705 705 705 700 -700 700 -700 0 195 0 195 -702 702 -703 703 -702
-702 -703 -703 -703 703 -702 702 -703 -703z"/>
<path d="M690 2180 l0 -140 2810 0 2810 0 0 140 0 140 -2810 0 -2810 0 0 -140z"/>
</g>
</svg>
