<svg xmlns="http://www.w3.org/2000/svg" viewBox="0 0 20 21" aria-labelledby="logoTitle logoDesc" role="img"><title id="logoTitle">Air Conditioner</title><desc id="logoDesc">Air Conditioner Icon</desc><g clip-path="url(#a)"><path d="m15.897 13.602 1.616 3.286-.723.367-1.616-3.285.723-.368Zm-6.018 3.88h.808V13.79l-.808-.003v3.696Zm-6.826-.594.722.367 1.617-3.285-.723-.368-1.616 3.286ZM19.98 3.928v7.393c0 .66-.43 1.643-1.616 1.643H2.202c-1.186 0-1.616-.982-1.616-1.643V3.93H19.98ZM17.556 10.5H3.01v1.643h14.546V10.5Zm1.616-5.75H1.394v6.571c.003.19.07.822.808.822V9.679h16.162v2.464c.768 0 .808-.684.808-.822V4.75Zm-2.02 2.875a.815.815 0 0 0 .808-.821.815.815 0 0 0-.809-.822.815.815 0 0 0-.808.822c0 .453.362.821.808.821Zm-.344 3.286H3.758v.821h13.05v-.821Z" fill="#39412F"/></g><defs><clipPath id="a"><path fill="fill-current text-22_green" transform="translate(.586 .643)" d="M0 0h19.394v19.714H0z"/></clipPath></defs></svg>