<svg xmlns="http://www.w3.org/2000/svg" viewBox="0 0 22 23"><g clip-path="url(#a)" fill="#39412F"><path d="M18.939 8.958a2.54 2.54 0 0 0-1.128.28c.088-.44.133-.885.133-1.333a.32.32 0 0 0-.091-.224.31.31 0 0 0-.22-.093H5.15a.31.31 0 0 0-.22.093.32.32 0 0 0-.092.224 6.662 6.662 0 0 0 1.591 4.352 4.052 4.052 0 0 0-1.809.831 4.144 4.144 0 0 0-1.209 1.6 2.981 2.981 0 0 0-.95.864c-.251.354-.424.76-.506 1.188a.322.322 0 0 0 .087.268l1.587 1.614a.31.31 0 0 0 .37.055l2.058-1.134 2.076-.44h2.738l2.05.436 2.066 1.14a.307.307 0 0 0 .37-.055l1.588-1.613a.316.316 0 0 0 .087-.269 3.04 3.04 0 0 0-.499-1.178 2.984 2.984 0 0 0-.936-.86 4.353 4.353 0 0 0-.732-1.155c.187-.118.368-.245.543-.38l.101-.083c.625-.476 1.311-.33 2.101-.159.432.11.873.171 1.317.186.541 0 1.06-.218 1.442-.607a2.09 2.09 0 0 0 .597-1.465 2.09 2.09 0 0 0-.597-1.465 2.022 2.022 0 0 0-1.442-.607l.01-.01Zm-1.619-.736a6.1 6.1 0 0 1-.428 1.96 5.91 5.91 0 0 1-2.494 2.904 4.302 4.302 0 0 0-2.251-.91 3.315 3.315 0 0 0-1.155-1.054 3.256 3.256 0 0 0-1.502-.4c-.478 0-.95.113-1.379.327-.429.213-.805.524-1.098.908a6.013 6.013 0 0 1-1.55-3.735H17.32Zm-6.656 8.247H8.348l-.967-3.935c.228-.358.54-.652.909-.857a2.49 2.49 0 0 1 1.2-.312 2.67 2.67 0 0 1 1.207.329c.37.203.69.493.932.844l-.965 3.931ZM6.809 12.83l.913 3.711-1.62.351-2.053-2.091c.397-.82 1.19-1.74 2.76-1.971Zm-2.912 5.176-1.292-1.325a2.39 2.39 0 0 1 1.04-1.4l1.818 1.865-1.566.86Zm12.481-1.323-1.302 1.323-1.556-.856 1.83-1.86c.506.313.877.81 1.036 1.39l-.008.003Zm-3.472.21-1.618-.35.913-3.71c1.57.23 2.363 1.147 2.758 1.968l-2.053 2.091Zm6.033-4.418a5.778 5.778 0 0 1-1.188-.171 5.737 5.737 0 0 0-1.284-.178c.413-.51.747-1.08.993-1.692.208-.47.848-.846 1.48-.846.376 0 .736.152 1.001.421.265.27.414.636.414 1.017 0 .382-.149.747-.414 1.017-.265.27-.625.421-1 .421l-.002.01ZM10.83 3.073c-.45.373-1.007.846-1.007 1.827.009 1.33 1.257 1.922 1.926 2.054h.059a.31.31 0 0 0 .229-.072.32.32 0 0 0-.171-.563c-.058 0-1.41-.283-1.41-1.419 0-.695.351-.99.767-1.33.373-.308.795-.66.795-1.298a1.343 1.343 0 0 0-.379-.99A1.648 1.648 0 0 0 10.508.86a.31.31 0 0 0-.22.097.32.32 0 0 0 .008.449c.06.058.14.09.222.089.248 0 .489.085.682.243a.709.709 0 0 1 .188.533c.006.32-.198.505-.558.803Z"/></g><defs><clipPath id="a"><path fill="#fff" transform="translate(.263 .821)" d="M0 0h21.01v21.357H0z"/></clipPath></defs></svg>