<svg xmlns="http://www.w3.org/2000/svg" viewBox="0 0 19 19"><g clip-path="url(#a)"><path d="M.414.054v18.892H19V.054H.414Zm17.812 18.105H1.189V.841h17.037v17.318ZM7.77 13.042c1.922 0 3.485-1.588 3.485-3.542 0-1.953-1.563-3.542-3.485-3.542S4.286 7.547 4.286 9.5c0 1.954 1.563 3.542 3.485 3.542Zm.387-6.266c1.185.173 2.122 1.126 2.293 2.33H8.157v-2.33Zm0 3.118h2.293c-.17 1.204-1.108 2.156-2.293 2.33v-2.33Zm-.774-3.118v2.33H5.092c.17-1.204 1.107-2.157 2.292-2.33Zm0 3.118v2.33c-1.185-.174-2.122-1.126-2.292-2.33h2.292Zm9.68 5.116h.387v-4.723h-.387V7.926h.387V3.99h-.387V2.022H2.35v14.956h14.714V15.01ZM16.29 3.99h-.388v3.936h.388v2.361h-.388v4.723h.388v1.181H3.125V2.81H16.29v1.18Z" fill="#39412F"/></g><defs><clipPath id="a"><path fill="#fff" transform="translate(.414 .054)" d="M0 0h18.586v18.893H0z"/></clipPath></defs></svg>