<svg xmlns="http://www.w3.org/2000/svg" viewBox="0 0 20 21"><g clip-path="url(#a)"><path d="M10.101 18.303h.808v1.643h-.808v-1.643Zm0-1.232h.808v-1.643h-.808v1.643Zm-3.232-2.875h.808v-1.643h-.808v1.643Zm0 2.875h.808v-1.643h-.808v1.643Zm0 2.875h.808v-1.643h-.808v1.643Zm3.232-5.75h.808v-1.643h-.808v1.643Zm9.293-3.285v.41H4.848v-.41c0-3.487 1.789-5.073 6.093-5.305.101-.573.442-.763.76-.825-.083-.85-.503-.852-1.6-.852H.808V5.57H0V1.464h.808v1.643h9.293c1.112 0 2.258.002 2.406 1.668.33.055.691.239.796.84 4.996.358 6.09 3.029 6.09 5.296Zm-.822-.411c-.187-2.763-2.302-4.107-6.45-4.107-5.115 0-6.347 1.56-6.457 4.107h12.907Zm-2.006 6.571h.808v-1.643h-.808v1.643Zm0-2.875h.808v-1.643h-.808v1.643Zm-3.233 5.75h.808v-1.643h-.808v1.643Zm3.233 0h.808v-1.643h-.808v1.643Zm-3.233-2.875h.808v-1.643h-.808v1.643Zm0-2.875h.808v-1.643h-.808v1.643Z" fill="#39412F"/></g><defs><clipPath id="a"><path fill="#fff" transform="translate(0 .643)" d="M0 0h19.394v19.714H0z"/></clipPath></defs></svg>