<svg fill="none" xmlns="http://www.w3.org/2000/svg" viewBox="0 0 17 17" aria-labelledby="logoTitle logoDesc" role="img"><title id="logoTitle">55 square meters</title><desc id="logoDesc">55 square meters Icon</desc><path stroke="stroke-current text-22_green" stroke-width=".816" d="M.637 1.081h15.507v15.507H.637z"/><path d="M4.972 7.065a.285.285 0 0 1-.079.206c-.052.052-.14.078-.264.078h-1.47l-.215 1.228a3.24 3.24 0 0 1 .676-.079c.244 0 .458.036.643.108.188.072.344.171.47.297.127.127.221.276.285.448.065.171.097.359.097.561 0 .248-.043.472-.13.673-.087.2-.207.372-.36.515a1.56 1.56 0 0 1-.531.327 1.886 1.886 0 0 1-.663.114 1.8 1.8 0 0 1-.395-.042 1.905 1.905 0 0 1-.656-.265 1.75 1.75 0 0 1-.248-.186l.176-.248a.182.182 0 0 1 .157-.085c.04 0 .089.018.143.052.057.033.124.07.203.111.078.042.17.08.274.115.106.032.233.049.379.049.163 0 .31-.027.44-.079a.932.932 0 0 0 .333-.222c.094-.098.166-.214.216-.349.05-.135.075-.286.075-.454a1.13 1.13 0 0 0-.065-.395.752.752 0 0 0-.193-.3.868.868 0 0 0-.32-.193 1.343 1.343 0 0 0-.45-.068 2.386 2.386 0 0 0-.758.124l-.366-.108.38-2.187h2.216v.254Zm3.787 0a.285.285 0 0 1-.078.206c-.052.052-.14.078-.264.078h-1.47l-.215 1.228a3.24 3.24 0 0 1 .676-.079c.244 0 .458.036.643.108.187.072.344.171.47.297.126.127.22.276.284.448.065.171.098.359.098.561 0 .248-.044.472-.13.673-.088.2-.207.372-.36.515a1.56 1.56 0 0 1-.532.327 1.886 1.886 0 0 1-.663.114 1.8 1.8 0 0 1-.395-.042 1.905 1.905 0 0 1-.656-.265 1.75 1.75 0 0 1-.248-.186l.176-.248a.182.182 0 0 1 .157-.085c.041 0 .09.018.144.052.056.033.124.07.202.111.078.042.17.08.274.115.107.032.233.049.38.049.162 0 .31-.027.44-.079a.932.932 0 0 0 .333-.222c.093-.098.165-.214.215-.349.05-.135.075-.286.075-.454a1.13 1.13 0 0 0-.065-.395.752.752 0 0 0-.193-.3.868.868 0 0 0-.32-.193 1.343 1.343 0 0 0-.45-.068 2.386 2.386 0 0 0-.757.124l-.366-.108.379-2.187h2.216v.254Zm.952 4.424v-2.48h.26c.062 0 .101.03.117.09l.032.255c.092-.113.194-.205.306-.277a.73.73 0 0 1 .397-.108c.168 0 .304.047.406.14a.78.78 0 0 1 .226.377.792.792 0 0 1 .134-.233.81.81 0 0 1 .414-.254 1.016 1.016 0 0 1 .59.034c.103.04.19.101.26.181.072.08.126.179.164.297.038.115.056.248.056.399v1.579h-.436v-1.58c0-.194-.042-.34-.127-.44-.085-.101-.208-.152-.37-.152a.548.548 0 0 0-.374.15.535.535 0 0 0-.118.186.727.727 0 0 0-.041.257v1.579h-.436v-1.58c0-.199-.04-.347-.12-.445-.08-.098-.197-.147-.35-.147a.554.554 0 0 0-.302.088.97.97 0 0 0-.252.235v1.849h-.436Zm4.512-4.008a.68.68 0 0 1 .23.036.52.52 0 0 1 .179.103.503.503 0 0 1 .154.37c0 .065-.01.127-.032.184a.696.696 0 0 1-.08.159c-.035.05-.074.1-.118.147-.044.047-.09.095-.14.144l-.396.404a1.39 1.39 0 0 1 .112-.024.672.672 0 0 1 .11-.01h.478c.034 0 .06.009.078.027.02.018.03.043.03.076v.188h-1.251V9.18c0-.021.004-.043.012-.066a.172.172 0 0 1 .041-.064l.542-.536c.04-.04.079-.082.115-.125.036-.042.067-.085.093-.127a.715.715 0 0 0 .06-.13.379.379 0 0 0 .025-.132c0-.083-.024-.147-.073-.191a.258.258 0 0 0-.184-.069.278.278 0 0 0-.183.059.355.355 0 0 0-.103.162.185.185 0 0 1-.044.053c-.015.014-.036.02-.064.02h-.022a.492.492 0 0 0-.022-.005L13.596 8a.566.566 0 0 1 .206-.389.67.67 0 0 1 .421-.13Z" fill="fill-current text-22_green"/></svg>