<svg fill="none" xmlns="http://www.w3.org/2000/svg" viewBox="0 0 17 17" aria-labelledby="logoTitle logoDesc" role="img"><title id="logoTitle">20 square meters</title><desc id="logoDesc">20 square meters Icon</desc><path stroke="stroke-current text-22_green" stroke-width=".816" d="M.636 1.081h15.507v15.507H.636z"/><path d="M3.74 6.758c.199 0 .384.03.556.089a1.25 1.25 0 0 1 .74.666c.072.16.108.343.108.548 0 .174-.026.335-.078.483-.052.148-.123.29-.212.428-.09.135-.193.266-.31.395a14.59 14.59 0 0 1-.37.388l-1.23 1.26a2.21 2.21 0 0 1 .522-.078h1.567c.063 0 .114.019.15.056a.194.194 0 0 1 .056.143v.353H2.118v-.2c0-.04.008-.083.023-.127a.36.36 0 0 1 .081-.12l1.499-1.505c.124-.127.237-.247.34-.363.102-.117.189-.235.26-.352.075-.118.131-.236.17-.356.04-.122.06-.252.06-.389a.912.912 0 0 0-.066-.359.695.695 0 0 0-.447-.408 1.017 1.017 0 0 0-.33-.052.988.988 0 0 0-.327.052.888.888 0 0 0-.463.366.881.881 0 0 0-.111.28.26.26 0 0 1-.078.138.21.21 0 0 1-.138.042h-.036a.73.73 0 0 0-.039-.006l-.303-.053c.03-.213.089-.401.176-.564.087-.166.197-.304.33-.415.135-.111.288-.195.46-.251.174-.06.361-.089.562-.089Zm5.417 2.393c0 .41-.044.764-.134 1.065a2.2 2.2 0 0 1-.359.74 1.446 1.446 0 0 1-.542.438 1.565 1.565 0 0 1-.666.144 1.46 1.46 0 0 1-1.205-.581 2.199 2.199 0 0 1-.359-.741c-.087-.3-.13-.655-.13-1.065 0-.409.043-.764.13-1.064.088-.3.207-.548.36-.744a1.45 1.45 0 0 1 1.204-.585c.237 0 .46.048.666.144.21.096.39.243.542.44.152.197.272.445.36.745.089.3.133.655.133 1.064Zm-.604 0c0-.357-.03-.656-.091-.897a1.757 1.757 0 0 0-.242-.588.887.887 0 0 0-.35-.317.928.928 0 0 0-.828 0 .887.887 0 0 0-.35.317c-.1.148-.18.344-.241.588a3.87 3.87 0 0 0-.088.897c0 .357.029.657.088.898.06.242.141.437.241.585.1.148.217.254.35.32a.955.955 0 0 0 .829 0 .914.914 0 0 0 .35-.32c.101-.148.182-.343.24-.585.062-.241.092-.54.092-.898Zm1.158 2.338v-2.48h.26c.062 0 .1.03.117.09l.032.255c.091-.113.193-.205.306-.277a.73.73 0 0 1 .397-.108c.168 0 .303.047.406.14a.78.78 0 0 1 .225.377.792.792 0 0 1 .135-.233.812.812 0 0 1 .414-.254 1.014 1.014 0 0 1 .59.034c.103.04.19.101.26.181.071.08.126.179.163.297.038.115.057.248.057.399v1.579h-.436v-1.58c0-.194-.043-.34-.127-.44-.085-.101-.208-.152-.37-.152a.549.549 0 0 0-.206.04.48.48 0 0 0-.169.11.534.534 0 0 0-.117.186.727.727 0 0 0-.042.257v1.579h-.436v-1.58c0-.199-.04-.347-.12-.445-.08-.098-.196-.147-.35-.147a.554.554 0 0 0-.301.088.97.97 0 0 0-.252.235v1.849H9.71Zm4.511-4.008c.085 0 .162.012.23.036.07.025.13.06.18.103a.503.503 0 0 1 .154.37c0 .065-.011.127-.032.184a.696.696 0 0 1-.081.159c-.034.05-.073.1-.117.147l-.14.144-.397.404a1.39 1.39 0 0 1 .113-.024.672.672 0 0 1 .11-.01h.477c.035 0 .06.009.079.027.02.018.03.043.03.076v.188h-1.252V9.18c0-.021.004-.043.012-.066a.172.172 0 0 1 .042-.064l.541-.536c.04-.04.08-.082.115-.125.036-.042.067-.085.093-.127a.715.715 0 0 0 .061-.13.379.379 0 0 0 .025-.132c0-.083-.025-.147-.074-.191a.258.258 0 0 0-.183-.069.278.278 0 0 0-.184.059.355.355 0 0 0-.103.162.185.185 0 0 1-.044.053c-.014.014-.036.02-.063.02h-.022a.492.492 0 0 0-.022-.005L13.596 8a.566.566 0 0 1 .205-.389.67.67 0 0 1 .421-.13Z" fill="fill-current text-22_green"/></svg>
