<svg width="17" height="17" viewBox="0 0 17 17" fill="none" xmlns="http://www.w3.org/2000/svg">
<rect x="0.636596" y="1.08081" width="15.5071" height="15.5071" stroke="#39412F" stroke-width="0.816162"/>
<path d="M4.97133 7.0653C4.97133 7.148 4.94521 7.21656 4.89297 7.27097C4.84074 7.3232 4.75259 7.34932 4.62854 7.34932H3.15945L2.94398 8.57683C3.18774 8.52459 3.413 8.49848 3.61976 8.49848C3.86352 8.49848 4.0779 8.53439 4.2629 8.60621C4.45007 8.67803 4.60677 8.77706 4.73301 8.90329C4.85924 9.02952 4.95391 9.17861 5.01703 9.35055C5.08232 9.52249 5.11497 9.70966 5.11497 9.91207C5.11497 10.1602 5.07144 10.3844 4.98438 10.5846C4.89733 10.7848 4.77762 10.9568 4.62527 11.1004C4.4751 11.2419 4.29772 11.3507 4.09314 11.4269C3.88855 11.503 3.66764 11.5411 3.43041 11.5411C3.2933 11.5411 3.16162 11.527 3.03539 11.4987C2.90916 11.4726 2.79163 11.4367 2.68281 11.391C2.57399 11.3452 2.47278 11.293 2.3792 11.2342C2.28561 11.1755 2.20291 11.1135 2.13108 11.0482L2.30737 10.8001C2.34655 10.7435 2.39878 10.7152 2.46408 10.7152C2.50543 10.7152 2.55331 10.7326 2.60772 10.7674C2.66431 10.8001 2.73178 10.8371 2.81013 10.8784C2.88848 10.9198 2.97989 10.9578 3.08436 10.9927C3.191 11.0253 3.31724 11.0416 3.46306 11.0416C3.62629 11.0416 3.7732 11.0155 3.90379 10.9633C4.03437 10.911 4.14537 10.8371 4.23678 10.7413C4.33037 10.6433 4.40219 10.5269 4.45225 10.392C4.5023 10.257 4.52733 10.1058 4.52733 9.93818C4.52733 9.79236 4.50557 9.66069 4.46204 9.54316C4.42069 9.42564 4.35648 9.32552 4.26943 9.24281C4.18455 9.16011 4.0779 9.09591 3.94949 9.0502C3.82108 9.0045 3.67091 8.98164 3.49897 8.98164C3.38144 8.98164 3.25956 8.99144 3.13333 9.01102C3.0071 9.03061 2.87651 9.06217 2.74157 9.1057L2.37593 8.99797L2.75463 6.81065H4.97133V7.0653ZM8.75883 7.0653C8.75883 7.148 8.73271 7.21656 8.68047 7.27097C8.62824 7.3232 8.54009 7.34932 8.41604 7.34932H6.94695L6.73148 8.57683C6.97524 8.52459 7.2005 8.49848 7.40726 8.49848C7.65102 8.49848 7.8654 8.53439 8.0504 8.60621C8.23757 8.67803 8.39427 8.77706 8.52051 8.90329C8.64674 9.02952 8.74141 9.17861 8.80453 9.35055C8.86982 9.52249 8.90247 9.70966 8.90247 9.91207C8.90247 10.1602 8.85894 10.3844 8.77188 10.5846C8.68483 10.7848 8.56512 10.9568 8.41277 11.1004C8.2626 11.2419 8.08522 11.3507 7.88064 11.4269C7.67605 11.503 7.45514 11.5411 7.21791 11.5411C7.0808 11.5411 6.94912 11.527 6.82289 11.4987C6.69666 11.4726 6.57913 11.4367 6.47031 11.391C6.36149 11.3452 6.26028 11.293 6.1667 11.2342C6.07311 11.1755 5.9904 11.1135 5.91858 11.0482L6.09487 10.8001C6.13405 10.7435 6.18628 10.7152 6.25158 10.7152C6.29293 10.7152 6.34081 10.7326 6.39522 10.7674C6.45181 10.8001 6.51928 10.8371 6.59763 10.8784C6.67598 10.9198 6.76739 10.9578 6.87186 10.9927C6.9785 11.0253 7.10474 11.0416 7.25056 11.0416C7.41379 11.0416 7.5607 11.0155 7.69129 10.9633C7.82187 10.911 7.93287 10.8371 8.02428 10.7413C8.11787 10.6433 8.18969 10.5269 8.23975 10.392C8.2898 10.257 8.31483 10.1058 8.31483 9.93818C8.31483 9.79236 8.29307 9.66069 8.24954 9.54316C8.20819 9.42564 8.14398 9.32552 8.05693 9.24281C7.97205 9.16011 7.8654 9.09591 7.73699 9.0502C7.60858 9.0045 7.45841 8.98164 7.28647 8.98164C7.16894 8.98164 7.04706 8.99144 6.92083 9.01102C6.7946 9.03061 6.66401 9.06217 6.52907 9.1057L6.16343 8.99797L6.54213 6.81065H8.75883V7.0653ZM9.71098 11.4889V9.00858H9.97052C10.0325 9.00858 10.0717 9.03877 10.088 9.09917L10.1199 9.35381C10.2113 9.24118 10.3133 9.14896 10.4259 9.07713C10.5402 9.00531 10.6724 8.9694 10.8226 8.9694C10.9907 8.9694 11.1262 9.01592 11.229 9.10896C11.3335 9.20201 11.4086 9.3277 11.4543 9.48603C11.4886 9.39625 11.5335 9.31872 11.589 9.25342C11.6461 9.18813 11.7098 9.13427 11.7799 9.09183C11.8501 9.04938 11.9244 9.01837 12.0028 8.99878C12.0827 8.97919 12.1635 8.9694 12.2452 8.9694C12.3757 8.9694 12.4916 8.99062 12.5928 9.03306C12.6957 9.07387 12.7822 9.13427 12.8524 9.21425C12.9242 9.29423 12.9789 9.39299 13.0164 9.51052C13.054 9.62641 13.0727 9.75945 13.0727 9.90962V11.4889H12.6369V9.90962C12.6369 9.71537 12.5945 9.56846 12.5096 9.46889C12.4247 9.36769 12.3015 9.31709 12.1399 9.31709C12.0681 9.31709 11.9995 9.33014 11.9342 9.35626C11.8705 9.38075 11.8142 9.41747 11.7653 9.46644C11.7163 9.51541 11.6771 9.57744 11.6477 9.65253C11.62 9.72598 11.6061 9.81168 11.6061 9.90962V11.4889H11.1703V9.90962C11.1703 9.71048 11.1303 9.56193 11.0503 9.46399C10.9703 9.36606 10.8536 9.31709 10.7002 9.31709C10.5924 9.31709 10.492 9.34647 10.399 9.40523C10.3076 9.46236 10.2235 9.54071 10.1468 9.64029V11.4889H9.71098ZM14.2225 7.48072C14.3074 7.48072 14.3841 7.49296 14.4527 7.51745C14.5229 7.54193 14.5824 7.57621 14.6314 7.62029C14.6804 7.66436 14.7179 7.71823 14.744 7.78189C14.7718 7.84391 14.7857 7.91329 14.7857 7.99001C14.7857 8.0553 14.775 8.11651 14.7538 8.17364C14.7342 8.22914 14.7073 8.28219 14.673 8.33279C14.6387 8.3834 14.5996 8.43237 14.5555 8.4797C14.5114 8.52704 14.4649 8.57519 14.4159 8.62416L14.0193 9.02816C14.0568 9.01837 14.0944 9.01021 14.1319 9.00368C14.1711 8.99715 14.2078 8.99389 14.2421 8.99389H14.7195C14.7538 8.99389 14.7799 9.00286 14.7979 9.02082C14.8175 9.03877 14.8273 9.06408 14.8273 9.09672V9.28526H13.5761V9.17997C13.5761 9.15875 13.5802 9.13671 13.5883 9.11386C13.5965 9.09101 13.6104 9.06979 13.63 9.0502L14.1711 8.51398C14.2119 8.47317 14.2503 8.43155 14.2862 8.38911C14.3221 8.34667 14.3531 8.30423 14.3792 8.26179C14.4053 8.21772 14.4257 8.17446 14.4404 8.13202C14.4567 8.08795 14.4649 8.04387 14.4649 7.9998C14.4649 7.91655 14.4404 7.85289 14.3914 7.80882C14.3425 7.76311 14.2813 7.74026 14.2078 7.74026C14.1327 7.74026 14.0715 7.75985 14.0242 7.79903C13.9785 7.8382 13.9442 7.89207 13.9213 7.96062C13.9083 7.98348 13.8936 8.00143 13.8773 8.01449C13.8626 8.02755 13.8414 8.03408 13.8136 8.03408C13.8071 8.03408 13.7997 8.03408 13.7916 8.03408C13.785 8.03245 13.7777 8.03081 13.7695 8.02918L13.5957 7.9998C13.6202 7.82677 13.6887 7.697 13.8014 7.61049C13.914 7.52398 14.0544 7.48072 14.2225 7.48072Z" fill="#39412F"/>
</svg>
