<svg width="17" height="17" viewBox="0 0 17 17" fill="none" xmlns="http://www.w3.org/2000/svg">
<rect x="0.636352" y="1.08081" width="15.5071" height="15.5071" stroke="#39412F" stroke-width="0.816162"/>
<path d="M3.74055 6.75842C3.93861 6.75842 4.12361 6.7878 4.29554 6.84656C4.46748 6.90533 4.61548 6.9913 4.73954 7.10447C4.86577 7.21547 4.9648 7.3515 5.03662 7.51255C5.10844 7.67361 5.14435 7.85643 5.14435 8.06101C5.14435 8.23513 5.11823 8.39618 5.066 8.54418C5.01377 8.69218 4.94303 8.83473 4.8538 8.97185C4.76456 9.10679 4.66118 9.23846 4.54366 9.36687C4.42831 9.4931 4.30534 9.6226 4.17475 9.75536L2.94398 11.0155C3.03104 10.9916 3.11918 10.9731 3.20842 10.96C3.29765 10.9448 3.38362 10.9372 3.46632 10.9372H5.03335C5.09647 10.9372 5.14653 10.9557 5.18353 10.9927C5.22053 11.0297 5.23903 11.0775 5.23903 11.1363V11.4889H2.11802V11.2897C2.11802 11.2484 2.12564 11.206 2.14088 11.1624C2.15829 11.1189 2.18549 11.0786 2.22249 11.0416L3.72097 9.53663C3.84502 9.4104 3.9582 9.28961 4.06049 9.17426C4.16278 9.05673 4.24984 8.9392 4.32166 8.82168C4.39566 8.70415 4.45225 8.58553 4.49142 8.46583C4.5306 8.34395 4.55019 8.21445 4.55019 8.07734C4.55019 7.94022 4.52842 7.82052 4.48489 7.71822C4.44136 7.61376 4.38151 7.52779 4.30534 7.46032C4.22916 7.39285 4.13993 7.34279 4.03764 7.31014C3.93534 7.27532 3.82543 7.25791 3.70791 7.25791C3.59038 7.25791 3.48156 7.27532 3.38144 7.31014C3.28133 7.34497 3.19209 7.39394 3.11374 7.45705C3.03757 7.51799 2.97227 7.5909 2.91786 7.67578C2.86563 7.76067 2.82863 7.85425 2.80686 7.95654C2.78945 8.01966 2.76334 8.06537 2.72851 8.09366C2.69369 8.12195 2.64799 8.1361 2.5914 8.1361C2.58052 8.1361 2.56855 8.1361 2.55549 8.1361C2.5446 8.13392 2.53155 8.13175 2.51631 8.12957L2.2127 8.07734C2.24317 7.86405 2.30193 7.67578 2.38899 7.51255C2.47605 7.34714 2.58596 7.20894 2.71872 7.09794C2.85366 6.98694 3.0071 6.90315 3.17903 6.84656C3.35315 6.7878 3.54032 6.75842 3.74055 6.75842ZM9.15711 9.1514C9.15711 9.56057 9.1125 9.91533 9.02326 10.2157C8.9362 10.5139 8.8165 10.7609 8.66415 10.9568C8.5118 11.1526 8.33116 11.2985 8.12222 11.3942C7.91546 11.49 7.69346 11.5379 7.45623 11.5379C7.21682 11.5379 6.99374 11.49 6.78698 11.3942C6.58239 11.2985 6.40393 11.1526 6.25158 10.9568C6.09923 10.7609 5.97952 10.5139 5.89247 10.2157C5.80541 9.91533 5.76188 9.56057 5.76188 9.1514C5.76188 8.74224 5.80541 8.38748 5.89247 8.08713C5.97952 7.78678 6.09923 7.53867 6.25158 7.34279C6.40393 7.14474 6.58239 6.99783 6.78698 6.90206C6.99374 6.8063 7.21682 6.75842 7.45623 6.75842C7.69346 6.75842 7.91546 6.8063 8.12222 6.90206C8.33116 6.99783 8.5118 7.14474 8.66415 7.34279C8.8165 7.53867 8.9362 7.78678 9.02326 8.08713C9.1125 8.38748 9.15711 8.74224 9.15711 9.1514ZM8.55315 9.1514C8.55315 8.79447 8.52268 8.49521 8.46174 8.25363C8.40298 8.00987 8.32245 7.81399 8.22016 7.66599C8.12004 7.51799 8.0036 7.41244 7.87084 7.34932C7.73808 7.28403 7.59988 7.25138 7.45623 7.25138C7.31259 7.25138 7.17438 7.28403 7.04162 7.34932C6.90886 7.41244 6.79242 7.51799 6.6923 7.66599C6.59219 7.81399 6.51166 8.00987 6.45072 8.25363C6.39196 8.49521 6.36257 8.79447 6.36257 9.1514C6.36257 9.50834 6.39196 9.8076 6.45072 10.0492C6.51166 10.2908 6.59219 10.4856 6.6923 10.6336C6.79242 10.7816 6.90886 10.8882 7.04162 10.9535C7.17438 11.0166 7.31259 11.0482 7.45623 11.0482C7.59988 11.0482 7.73808 11.0166 7.87084 10.9535C8.0036 10.8882 8.12004 10.7816 8.22016 10.6336C8.32245 10.4856 8.40298 10.2908 8.46174 10.0492C8.52268 9.8076 8.55315 9.50834 8.55315 9.1514ZM9.71098 11.4889V9.00858H9.97052C10.0325 9.00858 10.0717 9.03877 10.088 9.09917L10.1199 9.35381C10.2113 9.24118 10.3133 9.14896 10.4259 9.07713C10.5402 9.00531 10.6724 8.9694 10.8226 8.9694C10.9907 8.9694 11.1262 9.01592 11.229 9.10896C11.3335 9.20201 11.4086 9.3277 11.4543 9.48603C11.4886 9.39625 11.5335 9.31872 11.589 9.25342C11.6461 9.18813 11.7098 9.13427 11.7799 9.09183C11.8501 9.04938 11.9244 9.01837 12.0028 8.99878C12.0827 8.97919 12.1635 8.9694 12.2452 8.9694C12.3757 8.9694 12.4916 8.99062 12.5928 9.03306C12.6957 9.07387 12.7822 9.13427 12.8524 9.21425C12.9242 9.29423 12.9789 9.39299 13.0164 9.51052C13.054 9.62641 13.0727 9.75945 13.0727 9.90962V11.4889H12.6369V9.90962C12.6369 9.71537 12.5945 9.56846 12.5096 9.46889C12.4247 9.36769 12.3015 9.31709 12.1399 9.31709C12.0681 9.31709 11.9995 9.33014 11.9342 9.35626C11.8705 9.38075 11.8142 9.41747 11.7653 9.46644C11.7163 9.51541 11.6771 9.57744 11.6477 9.65253C11.62 9.72598 11.6061 9.81168 11.6061 9.90962V11.4889H11.1703V9.90962C11.1703 9.71048 11.1303 9.56193 11.0503 9.46399C10.9703 9.36606 10.8536 9.31709 10.7002 9.31709C10.5924 9.31709 10.492 9.34647 10.399 9.40523C10.3076 9.46236 10.2235 9.54071 10.1468 9.64029V11.4889H9.71098ZM14.2225 7.48072C14.3074 7.48072 14.3841 7.49296 14.4527 7.51745C14.5229 7.54193 14.5824 7.57621 14.6314 7.62029C14.6804 7.66436 14.7179 7.71823 14.744 7.78189C14.7718 7.84391 14.7857 7.91329 14.7857 7.99001C14.7857 8.0553 14.775 8.11651 14.7538 8.17364C14.7342 8.22914 14.7073 8.28219 14.673 8.33279C14.6387 8.3834 14.5996 8.43237 14.5555 8.4797C14.5114 8.52704 14.4649 8.57519 14.4159 8.62416L14.0193 9.02816C14.0568 9.01837 14.0944 9.01021 14.1319 9.00368C14.1711 8.99715 14.2078 8.99389 14.2421 8.99389H14.7195C14.7538 8.99389 14.7799 9.00286 14.7979 9.02082C14.8175 9.03877 14.8273 9.06408 14.8273 9.09672V9.28526H13.5761V9.17997C13.5761 9.15875 13.5802 9.13671 13.5883 9.11386C13.5965 9.09101 13.6104 9.06979 13.63 9.0502L14.1711 8.51398C14.2119 8.47317 14.2503 8.43155 14.2862 8.38911C14.3221 8.34667 14.3531 8.30423 14.3792 8.26179C14.4053 8.21772 14.4257 8.17446 14.4404 8.13202C14.4567 8.08795 14.4649 8.04387 14.4649 7.9998C14.4649 7.91655 14.4404 7.85289 14.3914 7.80882C14.3425 7.76311 14.2813 7.74026 14.2078 7.74026C14.1327 7.74026 14.0715 7.75985 14.0242 7.79903C13.9785 7.8382 13.9442 7.89207 13.9213 7.96062C13.9083 7.98348 13.8936 8.00143 13.8773 8.01449C13.8626 8.02755 13.8414 8.03408 13.8136 8.03408C13.8071 8.03408 13.7997 8.03408 13.7916 8.03408C13.785 8.03245 13.7777 8.03081 13.7695 8.02918L13.5957 7.9998C13.6202 7.82677 13.6887 7.697 13.8014 7.61049C13.914 7.52398 14.0544 7.48072 14.2225 7.48072Z" fill="#39412F"/>
</svg>
