<svg width="17" height="17" viewBox="0 0 17 17" fill="none" xmlns="http://www.w3.org/2000/svg">
<rect x="0.636596" y="1.08081" width="15.5071" height="15.5071" stroke="#39412F" stroke-width="0.816162"/>
<path d="M4.97181 7.0653C4.97181 7.148 4.9457 7.21656 4.89346 7.27097C4.84123 7.3232 4.75308 7.34932 4.62903 7.34932H3.15993L2.94447 8.57683C3.18823 8.52459 3.41349 8.49848 3.62025 8.49848C3.86401 8.49848 4.07839 8.53439 4.26339 8.60621C4.45056 8.67803 4.60726 8.77706 4.73349 8.90329C4.85973 9.02952 4.9544 9.17861 5.01752 9.35055C5.08281 9.52249 5.11546 9.70966 5.11546 9.91207C5.11546 10.1602 5.07193 10.3844 4.98487 10.5846C4.89781 10.7848 4.77811 10.9568 4.62576 11.1004C4.47559 11.2419 4.29821 11.3507 4.09362 11.4269C3.88904 11.503 3.66813 11.5411 3.4309 11.5411C3.29379 11.5411 3.16211 11.527 3.03588 11.4987C2.90965 11.4726 2.79212 11.4367 2.6833 11.391C2.57447 11.3452 2.47327 11.293 2.37968 11.2342C2.2861 11.1755 2.20339 11.1135 2.13157 11.0482L2.30786 10.8001C2.34704 10.7435 2.39927 10.7152 2.46457 10.7152C2.50592 10.7152 2.5538 10.7326 2.60821 10.7674C2.6648 10.8001 2.73227 10.8371 2.81062 10.8784C2.88897 10.9198 2.98038 10.9578 3.08485 10.9927C3.19149 11.0253 3.31773 11.0416 3.46355 11.0416C3.62678 11.0416 3.77369 11.0155 3.90427 10.9633C4.03486 10.911 4.14586 10.8371 4.23727 10.7413C4.33085 10.6433 4.40268 10.5269 4.45273 10.392C4.50279 10.257 4.52782 10.1058 4.52782 9.93818C4.52782 9.79236 4.50606 9.66069 4.46253 9.54316C4.42118 9.42564 4.35697 9.32552 4.26991 9.24281C4.18503 9.16011 4.07839 9.09591 3.94998 9.0502C3.82157 9.0045 3.6714 8.98164 3.49946 8.98164C3.38193 8.98164 3.26005 8.99144 3.13382 9.01102C3.00758 9.03061 2.877 9.06217 2.74206 9.1057L2.37642 8.99797L2.75512 6.81065H4.97181V7.0653ZM8.75931 7.0653C8.75931 7.148 8.7332 7.21656 8.68096 7.27097C8.62873 7.3232 8.54058 7.34932 8.41653 7.34932H6.94743L6.73197 8.57683C6.97573 8.52459 7.20099 8.49848 7.40775 8.49848C7.65151 8.49848 7.86589 8.53439 8.05089 8.60621C8.23806 8.67803 8.39476 8.77706 8.52099 8.90329C8.64723 9.02952 8.7419 9.17861 8.80502 9.35055C8.87031 9.52249 8.90296 9.70966 8.90296 9.91207C8.90296 10.1602 8.85943 10.3844 8.77237 10.5846C8.68531 10.7848 8.56561 10.9568 8.41326 11.1004C8.26309 11.2419 8.08571 11.3507 7.88112 11.4269C7.67654 11.503 7.45563 11.5411 7.2184 11.5411C7.08129 11.5411 6.94961 11.527 6.82338 11.4987C6.69715 11.4726 6.57962 11.4367 6.4708 11.391C6.36197 11.3452 6.26077 11.293 6.16718 11.2342C6.0736 11.1755 5.99089 11.1135 5.91907 11.0482L6.09536 10.8001C6.13454 10.7435 6.18677 10.7152 6.25206 10.7152C6.29342 10.7152 6.3413 10.7326 6.39571 10.7674C6.4523 10.8001 6.51977 10.8371 6.59812 10.8784C6.67647 10.9198 6.76788 10.9578 6.87235 10.9927C6.97899 11.0253 7.10523 11.0416 7.25105 11.0416C7.41428 11.0416 7.56119 11.0155 7.69177 10.9633C7.82236 10.911 7.93336 10.8371 8.02477 10.7413C8.11835 10.6433 8.19018 10.5269 8.24023 10.392C8.29029 10.257 8.31532 10.1058 8.31532 9.93818C8.31532 9.79236 8.29356 9.66069 8.25003 9.54316C8.20868 9.42564 8.14447 9.32552 8.05741 9.24281C7.97253 9.16011 7.86589 9.09591 7.73748 9.0502C7.60907 9.0045 7.4589 8.98164 7.28696 8.98164C7.16943 8.98164 7.04755 8.99144 6.92132 9.01102C6.79508 9.03061 6.6645 9.06217 6.52956 9.1057L6.16392 8.99797L6.54262 6.81065H8.75931V7.0653ZM9.71147 11.4889V9.00858H9.97101C10.033 9.00858 10.0722 9.03877 10.0885 9.09917L10.1204 9.35381C10.2118 9.24118 10.3138 9.14896 10.4264 9.07713C10.5407 9.00531 10.6729 8.9694 10.8231 8.9694C10.9912 8.9694 11.1267 9.01592 11.2295 9.10896C11.334 9.20201 11.4091 9.3277 11.4548 9.48603C11.4891 9.39625 11.534 9.31872 11.5895 9.25342C11.6466 9.18813 11.7102 9.13427 11.7804 9.09183C11.8506 9.04938 11.9249 9.01837 12.0032 8.99878C12.0832 8.97919 12.164 8.9694 12.2456 8.9694C12.3762 8.9694 12.4921 8.99062 12.5933 9.03306C12.6962 9.07387 12.7827 9.13427 12.8529 9.21425C12.9247 9.29423 12.9794 9.39299 13.0169 9.51052C13.0545 9.62641 13.0732 9.75945 13.0732 9.90962V11.4889H12.6374V9.90962C12.6374 9.71537 12.595 9.56846 12.5101 9.46889C12.4252 9.36769 12.302 9.31709 12.1404 9.31709C12.0685 9.31709 12 9.33014 11.9347 9.35626C11.871 9.38075 11.8147 9.41747 11.7657 9.46644C11.7168 9.51541 11.6776 9.57744 11.6482 9.65253C11.6205 9.72598 11.6066 9.81168 11.6066 9.90962V11.4889H11.1708V9.90962C11.1708 9.71048 11.1308 9.56193 11.0508 9.46399C10.9708 9.36606 10.8541 9.31709 10.7007 9.31709C10.5929 9.31709 10.4925 9.34647 10.3995 9.40523C10.3081 9.46236 10.224 9.54071 10.1473 9.64029V11.4889H9.71147ZM14.223 7.48072C14.3079 7.48072 14.3846 7.49296 14.4531 7.51745C14.5233 7.54193 14.5829 7.57621 14.6319 7.62029C14.6809 7.66436 14.7184 7.71823 14.7445 7.78189C14.7723 7.84391 14.7861 7.91329 14.7861 7.99001C14.7861 8.0553 14.7755 8.11651 14.7543 8.17364C14.7347 8.22914 14.7078 8.28219 14.6735 8.33279C14.6392 8.3834 14.6001 8.43237 14.556 8.4797C14.5119 8.52704 14.4654 8.57519 14.4164 8.62416L14.0198 9.02816C14.0573 9.01837 14.0949 9.01021 14.1324 9.00368C14.1716 8.99715 14.2083 8.99389 14.2426 8.99389H14.72C14.7543 8.99389 14.7804 9.00286 14.7984 9.02082C14.818 9.03877 14.8278 9.06408 14.8278 9.09672V9.28526H13.5766V9.17997C13.5766 9.15875 13.5807 9.13671 13.5888 9.11386C13.597 9.09101 13.6109 9.06979 13.6305 9.0502L14.1716 8.51398C14.2124 8.47317 14.2507 8.43155 14.2867 8.38911C14.3226 8.34667 14.3536 8.30423 14.3797 8.26179C14.4058 8.21772 14.4262 8.17446 14.4409 8.13202C14.4572 8.08795 14.4654 8.04387 14.4654 7.9998C14.4654 7.91655 14.4409 7.85289 14.3919 7.80882C14.343 7.76311 14.2818 7.74026 14.2083 7.74026C14.1332 7.74026 14.072 7.75985 14.0247 7.79903C13.979 7.8382 13.9447 7.89207 13.9218 7.96062C13.9088 7.98348 13.8941 8.00143 13.8778 8.01449C13.8631 8.02755 13.8418 8.03408 13.8141 8.03408C13.8076 8.03408 13.8002 8.03408 13.7921 8.03408C13.7855 8.03245 13.7782 8.03081 13.77 8.02918L13.5962 7.9998C13.6207 7.82677 13.6892 7.697 13.8019 7.61049C13.9145 7.52398 14.0549 7.48072 14.223 7.48072Z" fill="#39412F"/>
</svg>
