<svg xmlns="http://www.w3.org/2000/svg" viewBox="0 0 23 23" aria-labelledby="logoTitle logoDesc" role="img"><title id="logoTitle">Wi-Fi</title><desc id="logoDesc">Wi-Fi Icon</desc><path d="M4.985 10.067a8.485 8.485 0 0 1 6.447-2.945c2.49 0 4.84 1.074 6.447 2.945a.447.447 0 0 0 .638.044.465.465 0 0 0 .044-.648 9.38 9.38 0 0 0-7.129-3.26A9.383 9.383 0 0 0 4.303 9.46a.465.465 0 0 0 .043.65.447.447 0 0 0 .639-.044Z" fill="fill-current text-22_green"/><path d="M16.004 11.89a.448.448 0 0 0 .637.067.465.465 0 0 0 .065-.647 6.72 6.72 0 0 0-5.274-2.527c-2.066 0-3.988.921-5.274 2.526a.465.465 0 0 0 .065.647c.195.162.48.13.637-.066a5.827 5.827 0 0 1 4.572-2.187c1.793 0 3.46.797 4.572 2.188Z" fill="fill-current text-22_green"/><path d="M14.084 13.673a.449.449 0 0 0 .63.114.465.465 0 0 0 .113-.641 4.114 4.114 0 0 0-3.395-1.782c-1.38 0-2.66.682-3.423 1.823a.465.465 0 0 0 .12.64.446.446 0 0 0 .63-.122 3.205 3.205 0 0 1 2.673-1.421c1.064 0 2.056.52 2.652 1.389ZM11.432 16.322a.905.905 0 1 0 0-1.81.905.905 0 0 0 0 1.81Z" fill="fill-current text-22_green"/></svg>