<svg viewBox="0 0 48 48" fill="none" xmlns="http://www.w3.org/2000/svg" aria-labelledby="logoTitle logoDesc" role="img"><title id="logoTitle">Bath Tub</title><desc id="logoDesc">Bath Tub Icon</desc><path d="M45.43 24.142H7.143V8.141a1.81 1.81 0 0 1 3.618 0v.303h-.526a2.714 2.714 0 0 0 0 5.427h5.653a2.714 2.714 0 0 0 0-5.427h-3.091V8.14a3.844 3.844 0 1 0-7.689 0v16.001H2.465c-.562 0-1.018.456-1.018 1.018v7.914a7.81 7.81 0 0 0 7.802 7.802h.904v1.496a1.017 1.017 0 1 0 2.035 0v-1.496h23.744v1.496a1.017 1.017 0 1 0 2.035 0v-1.496h.679a7.81 7.81 0 0 0 7.801-7.802V25.16c0-.562-.456-1.018-1.017-1.018ZM16.566 11.157a.679.679 0 0 1-.678.679h-5.653a.679.679 0 0 1 0-1.357h5.653c.374 0 .678.304.678.678Zm27.846 15.02v2.401H3.482v-2.4h40.93ZM38.646 38.84H9.249a5.773 5.773 0 0 1-5.767-5.766v-2.46h40.93v2.46a5.773 5.773 0 0 1-5.766 5.767Z" class="fill-current text-22_green"/></svg>