<svg width="17" height="17" viewBox="0 0 17 17" fill="none" xmlns="http://www.w3.org/2000/svg">
<path fill-rule="evenodd" clip-rule="evenodd" d="M2.30225 8.70171C2.30225 12.3817 5.28891 15.3684 8.96891 15.3684C12.6489 15.3684 15.6356 12.3817 15.6356 8.70171C15.6356 5.02171 12.6489 2.03504 8.96891 2.03504C5.28891 2.03504 2.30225 5.02171 2.30225 8.70171ZM5.63558 8.70171C5.63558 10.5417 7.12891 12.035 8.96891 12.035C10.8089 12.035 12.3022 10.5417 12.3022 8.70171C12.3022 6.86171 10.8089 5.36838 8.96891 5.36838C7.12891 5.36838 5.63558 6.86171 5.63558 8.70171ZM8.96891 14.035C11.9156 14.035 14.3022 11.6484 14.3022 8.70171C14.3022 5.75504 11.9156 3.36838 8.96891 3.36838C6.02225 3.36838 3.63558 5.75504 3.63558 8.70171C3.63558 11.6484 6.02225 14.035 8.96891 14.035Z" class="fill-current"/>
</svg>
