<svg xmlns="http://www.w3.org/2000/svg" viewBox="0 0 21 21" aria-labelledby="logoTitle logoDesc" role="img"><title id="logoTitle">Hair Dryer</title><desc id="logoDesc">Hair Dryer Icon</desc><g clip-path="url(#a)"><path d="m5.636 6.53.485.657c-.426.325-.849.44-1.26.44-.541 0-1.063-.2-1.548-.384-.874-.333-1.44-.513-2.04-.056L.788 6.53c.985-.752 1.954-.382 2.808-.056.874.334 1.44.514 2.04.056Zm-2.04-1.809c-.854-.325-1.823-.696-2.808.056l.485.657c.6-.457 1.166-.277 2.04.056.485.185 1.007.384 1.548.384.412 0 .834-.114 1.26-.44l-.485-.657c-.6.458-1.166.277-2.04-.056Zm0 3.751c-.854-.325-1.823-.694-2.808.057l.485.657c.6-.457 1.166-.277 2.04.056.485.185 1.007.384 1.548.384.412 0 .834-.115 1.26-.44l-.485-.657c-.6.458-1.166.277-2.04-.057ZM18 7.214c0 1.36-1.087 2.465-2.424 2.465S13.15 8.573 13.15 7.214c0-1.359 1.088-2.464 2.425-2.464C16.913 4.75 18 5.855 18 7.214Zm-.808 0c0-.905-.725-1.643-1.616-1.643-.892 0-1.616.738-1.616 1.643 0 .906.724 1.643 1.616 1.643.891 0 1.616-.737 1.616-1.643Zm2.828 0c0 1.874-1.014 3.408-2.54 4.107-.339 1.018-1.5 4.64-1.5 6.572v.41h-5.373l.633-.691c.01-.012 1.143-1.258 1.945-3.166.656-1.565.493-2.592.422-2.886-2.773-.414-6.058-1.435-6.23-1.49l-.286-.088V4.447l.285-.09c.217-.067 5.343-1.66 8.2-1.66 2.367 0 4.444 2.11 4.444 4.517Zm-3.495 4.422a4.716 4.716 0 0 1-.95.096c-.346 0-.727-.024-1.128-.066.081.584.088 1.657-.519 3.102a13.376 13.376 0 0 1-1.541 2.714h2.799c.113-1.812.903-4.484 1.339-5.846Zm2.687-4.422c0-2.115-1.92-3.696-3.636-3.696-2.365 0-6.55 1.202-7.677 1.538v4.316c1.126.337 5.313 1.539 7.677 1.539 2.107 0 3.636-1.555 3.636-3.697Z" class="fill-current text-22_green"/></g><defs><clipPath id="a"><path class="fill-current text-22_green" transform="translate(.707 .643)" d="M0 0h19.394v19.714H0z"/></clipPath></defs></svg>