<svg width="173" height="82" viewBox="0 0 173 82" fill="none" xmlns="http://www.w3.org/2000/svg">
<path d="M43.8267 79.5338V73.3493H45.6838C46.0414 73.3493 46.349 73.3869 46.6063 73.4615C46.8664 73.5361 47.079 73.6428 47.2443 73.7809C47.4123 73.919 47.5356 74.0885 47.6141 74.2901C47.6954 74.4887 47.736 74.7131 47.736 74.9634C47.736 75.1157 47.713 75.2624 47.6669 75.4036C47.6236 75.5448 47.5559 75.6755 47.4638 75.7964C47.3744 75.9172 47.2606 76.0251 47.1224 76.12C46.987 76.215 46.8271 76.2927 46.6429 76.3531C47.0682 76.4425 47.3893 76.6047 47.606 76.8408C47.8227 77.0769 47.9311 77.3877 47.9311 77.773C47.9311 78.035 47.8851 78.2736 47.7929 78.4894C47.7035 78.7052 47.5708 78.8908 47.3947 79.0462C47.2213 79.2015 47.0073 79.3224 46.7526 79.4087C46.5006 79.4919 46.2121 79.5338 45.887 79.5338H43.8267ZM44.6151 76.7156V78.8692H45.8748C46.0997 78.8692 46.2921 78.8421 46.4519 78.7872C46.6144 78.7323 46.7472 78.6565 46.8501 78.5585C46.9558 78.458 47.033 78.3396 47.0818 78.2046C47.1305 78.0665 47.1549 77.9154 47.1549 77.7514C47.1549 77.4321 47.0479 77.1805 46.8339 76.9962C46.6226 76.8093 46.3015 76.7156 45.8708 76.7156H44.6151ZM44.6151 76.12H45.6554C45.8776 76.12 46.0699 76.0942 46.2324 76.0424C46.395 75.9906 46.5291 75.9184 46.6348 75.8266C46.7431 75.7347 46.823 75.6237 46.8745 75.4943C46.926 75.3617 46.9517 75.218 46.9517 75.0627C46.9517 74.7001 46.8488 74.4338 46.6429 74.2643C46.437 74.0947 46.1173 74.0096 45.6838 74.0096H44.6151V76.12Z" fill="#39412F"/>
<path d="M53.8384 73.3493V74.0312H51.0425V76.0855H53.306V76.7415H51.0425V78.8519H53.8384V79.5338H50.2501V73.3493H53.8384Z" fill="#39412F"/>
<path d="M61.181 76.4437C61.181 76.9068 61.1119 77.3285 60.9738 77.7083C60.8356 78.0881 60.6405 78.413 60.3886 78.6836C60.1366 78.9543 59.8342 79.1639 59.4824 79.3137C59.13 79.4605 58.7399 79.5338 58.312 79.5338H56.1336V73.3493H58.312C58.7399 73.3493 59.13 73.4239 59.4824 73.5737C59.8342 73.7205 60.1366 73.9307 60.3886 74.2038C60.6405 74.4745 60.8356 74.7994 60.9738 75.1792C61.1119 75.559 61.181 75.9807 61.181 76.4437ZM60.3723 76.4437C60.3723 76.0639 60.3236 75.7242 60.226 75.4252C60.1285 75.1262 59.9903 74.8728 59.8115 74.6656C59.6327 74.4585 59.4156 74.3 59.1613 74.1909C58.9065 74.0818 58.6232 74.0269 58.312 74.0269H56.926V78.8563H58.312C58.6232 78.8563 58.9065 78.8014 59.1613 78.6923C59.4156 78.5831 59.6327 78.4259 59.8115 78.2218C59.9903 78.0147 60.1285 77.7613 60.226 77.4623C60.3236 77.1632 60.3723 76.8235 60.3723 76.4437Z" fill="#39412F"/>
<path d="M68.122 73.2803C68.3356 73.2803 68.5306 73.3179 68.7071 73.3925C68.883 73.4646 69.0346 73.5608 69.1623 73.6816C69.2923 73.8025 69.3939 73.9437 69.4671 74.1046C69.5425 74.263 69.5861 74.4283 69.5971 74.6009L69.146 74.6958C69.1321 74.6989 69.1199 74.7002 69.1094 74.7002C69.074 74.7002 69.0404 74.6903 69.0079 74.6699C68.9777 74.6496 68.9562 74.6138 68.9428 74.562C68.9237 74.4874 68.8923 74.4098 68.8494 74.329C68.8087 74.2482 68.7542 74.1749 68.6868 74.1089C68.6218 74.0429 68.5417 73.988 68.4471 73.9449C68.3547 73.9017 68.2462 73.8802 68.122 73.8802C67.9861 73.8802 67.8642 73.903 67.7562 73.9492C67.6477 73.9954 67.5542 74.0602 67.4758 74.1434C67.3998 74.2242 67.34 74.3204 67.297 74.4326C67.2564 74.5417 67.2361 74.6613 67.2361 74.7908C67.2361 74.8913 67.2465 74.9881 67.2686 75.0799C67.2929 75.1718 67.3278 75.2655 67.3742 75.3605C67.4201 75.4523 67.4799 75.5491 67.553 75.6496C67.6262 75.7477 67.7138 75.8512 67.8172 75.9604L69.4914 77.7687C69.5942 77.5757 69.6755 77.3747 69.7353 77.1645C69.7974 76.9518 69.8392 76.7385 69.8612 76.5257C69.8665 76.4709 69.8827 76.4277 69.91 76.3963C69.9367 76.3648 69.975 76.3488 70.0238 76.3488H70.4708C70.465 76.6799 70.4151 77.0048 70.3204 77.3242C70.2252 77.6435 70.0888 77.9426 69.91 78.2219L71.1291 79.5339H70.4302C70.3512 79.5339 70.2879 79.524 70.2392 79.5037C70.1904 79.4833 70.1358 79.442 70.0766 79.3785L69.4914 78.7527C69.2366 79.0147 68.9428 79.2219 68.6096 79.3742C68.2787 79.5265 67.9147 79.6029 67.5165 79.6029C67.2993 79.6029 67.0869 79.5641 66.8784 79.4864C66.6694 79.4087 66.4825 79.2965 66.3176 79.1498C66.1551 78.9999 66.0233 78.8187 65.9235 78.606C65.823 78.3933 65.7731 78.1528 65.7731 77.8852C65.7731 77.6836 65.8039 77.4937 65.8666 77.3155C65.9316 77.1343 66.0193 76.9672 66.1307 76.8149C66.2445 76.6626 66.3786 76.5257 66.533 76.4049C66.6874 76.2841 66.8564 76.1805 67.041 76.0942C66.8755 75.8728 66.7536 75.657 66.6753 75.4468C66.5963 75.2366 66.5574 75.0195 66.5574 74.7951C66.5574 74.5849 66.5922 74.3882 66.6631 74.2038C66.7362 74.0195 66.8401 73.8598 66.976 73.7248C67.1112 73.5867 67.275 73.4788 67.4677 73.4011C67.6627 73.3203 67.8804 73.2803 68.122 73.2803ZM66.5086 77.8248C66.5086 78.0116 66.5412 78.1775 66.6062 78.3211C66.6712 78.4623 66.7565 78.5813 66.8622 78.6793C66.9678 78.7774 67.088 78.852 67.2239 78.9038C67.3591 78.9525 67.4973 78.9771 67.6384 78.9771C67.9414 78.9771 68.2137 78.9179 68.4552 78.8002C68.6961 78.6824 68.9086 78.5252 69.0932 78.3297L67.3742 76.4869C67.0869 76.6509 66.8703 76.8482 66.724 77.0782C66.58 77.3057 66.5086 77.5541 66.5086 77.8248Z" fill="#39412F"/>
<path d="M75.7549 79.5338V73.3493H77.612C77.9696 73.3493 78.2773 73.3869 78.5345 73.4615C78.7946 73.5361 79.0076 73.6428 79.1725 73.7809C79.3408 73.919 79.4639 74.0885 79.5423 74.2901C79.6236 74.4887 79.6642 74.7131 79.6642 74.9634C79.6642 75.1157 79.6416 75.2624 79.5951 75.4036C79.5522 75.5448 79.4842 75.6755 79.3919 75.7964C79.3025 75.9172 79.1887 76.0251 79.0506 76.12C78.9153 76.215 78.7557 76.2927 78.571 76.3531C78.9966 76.4425 79.3176 76.6047 79.5342 76.8408C79.7513 77.0769 79.8593 77.3877 79.8593 77.773C79.8593 78.035 79.8134 78.2736 79.7211 78.4894C79.6317 78.7052 79.4993 78.8908 79.3228 79.0462C79.1498 79.2015 78.9356 79.3224 78.6808 79.4087C78.4288 79.4919 78.1403 79.5338 77.8152 79.5338H75.7549ZM76.5432 76.7156V78.8692H77.803C78.0282 78.8692 78.2204 78.8421 78.38 78.7872C78.5426 78.7323 78.6755 78.6565 78.7783 78.5585C78.884 78.458 78.9612 78.3396 79.0099 78.2046C79.0587 78.0665 79.0831 77.9154 79.0831 77.7514C79.0831 77.4321 78.9763 77.1805 78.762 76.9962C78.5507 76.8093 78.2297 76.7156 77.7989 76.7156H76.5432ZM76.5432 76.12H77.5836C77.8059 76.12 77.998 76.0942 78.1606 76.0424C78.3232 75.9906 78.4573 75.9184 78.5629 75.8266C78.6715 75.7347 78.7516 75.6237 78.8027 75.4943C78.8543 75.3617 78.8799 75.218 78.8799 75.0627C78.8799 74.7001 78.7771 74.4338 78.571 74.2643C78.3655 74.0947 78.0457 74.0096 77.612 74.0096H76.5432V76.12Z" fill="#39412F"/>
<path d="M83.044 76.953V79.5338H82.2597V73.3493H83.9056C84.2742 73.3493 84.5923 73.3894 84.8605 73.4701C85.1287 73.5478 85.3493 73.6613 85.5229 73.8111C85.6988 73.9609 85.8289 74.1422 85.913 74.3549C85.9972 74.5651 86.039 74.8006 86.039 75.0627C86.039 75.2815 86.0065 75.4856 85.9415 75.6755C85.8765 75.8654 85.7818 76.0368 85.657 76.1891C85.5351 76.3389 85.3848 76.4665 85.206 76.5732C85.03 76.6799 84.8292 76.76 84.6045 76.8149C84.702 76.8753 84.7885 76.9629 84.8646 77.0782L86.5632 79.5338H85.8643C85.7209 79.5338 85.6152 79.4747 85.5473 79.3569L84.0356 77.1472C83.9897 77.0782 83.9392 77.0294 83.8852 77.0005C83.8312 76.969 83.75 76.953 83.6414 76.953H83.044ZM83.044 76.3445H83.869C84.0995 76.3445 84.3009 76.3155 84.4745 76.2581C84.6504 76.1977 84.7967 76.1145 84.9134 76.0078C85.0324 75.8987 85.1218 75.7692 85.1816 75.6194C85.2414 75.4696 85.271 75.3044 85.271 75.1231C85.271 74.755 85.156 74.477 84.9256 74.2901C84.698 74.1033 84.3578 74.0096 83.9056 74.0096H83.044V76.3445Z" fill="#39412F"/>
<path d="M92.1585 73.3493V74.0312H89.3626V76.0855H91.6261V76.7415H89.3626V78.8519H92.1585V79.5338H88.5702V73.3493H92.1585Z" fill="#39412F"/>
<path d="M99.2445 79.5338H98.635C98.5647 79.5338 98.5078 79.5153 98.4643 79.4777C98.4213 79.4401 98.3888 79.3927 98.3668 79.3353L97.8222 77.842H95.2092L94.6647 79.3353C94.6461 79.3871 94.6136 79.4333 94.5672 79.4734C94.5213 79.5135 94.4644 79.5338 94.3965 79.5338H93.7869L96.1155 73.3493H96.916L99.2445 79.5338ZM95.4287 77.2378H97.6028L96.6884 74.7217C96.6292 74.5664 96.5706 74.3721 96.5137 74.1391C96.4841 74.2569 96.4545 74.3666 96.4243 74.4671C96.3976 74.5651 96.3703 74.6514 96.343 74.726L95.4287 77.2378Z" fill="#39412F"/>
<path d="M102.004 76.0596H102.301C102.404 76.0596 102.485 76.0467 102.545 76.0208C102.607 75.9918 102.666 75.9443 102.72 75.8784L104.658 73.5478C104.718 73.4757 104.775 73.4258 104.829 73.3968C104.886 73.3653 104.958 73.3493 105.044 73.3493H105.715L103.496 76.0122C103.439 76.0781 103.385 76.1342 103.333 76.1805C103.285 76.2267 103.232 76.2637 103.175 76.2927C103.251 76.3186 103.317 76.3574 103.374 76.4092C103.431 76.461 103.491 76.5257 103.553 76.6034L105.869 79.5338H105.186C105.135 79.5338 105.092 79.5295 105.056 79.5209C105.021 79.5123 104.99 79.5006 104.963 79.4864C104.938 79.4722 104.915 79.4531 104.894 79.4303C104.872 79.4075 104.85 79.3828 104.829 79.3569L102.817 76.9012C102.788 76.8667 102.759 76.8377 102.732 76.8149C102.707 76.789 102.678 76.7674 102.642 76.7502C102.61 76.7329 102.57 76.7212 102.525 76.7156C102.481 76.707 102.427 76.7027 102.362 76.7027H102.004V79.5338H101.22V73.3493H102.004V76.0596Z" fill="#39412F"/>
<path d="M111.42 73.3493V74.0312H108.624V76.1934H111.014V76.8753H108.624V79.5338H107.832V73.3493H111.42Z" fill="#39412F"/>
<path d="M117.848 79.5338H117.238C117.168 79.5338 117.111 79.5153 117.068 79.4777C117.025 79.4401 116.992 79.3927 116.97 79.3353L116.425 77.842H113.812L113.268 79.3353C113.249 79.3871 113.217 79.4333 113.17 79.4734C113.125 79.5135 113.068 79.5338 113 79.5338H112.39L114.719 73.3493H115.519L117.848 79.5338ZM114.032 77.2378H116.206L115.292 74.7217C115.232 74.5664 115.174 74.3721 115.117 74.1391C115.087 74.2569 115.058 74.3666 115.028 74.4671C115.001 74.5651 114.974 74.6514 114.946 74.726L114.032 77.2378Z" fill="#39412F"/>
<path d="M122.725 74.3161C122.701 74.3592 122.675 74.3925 122.648 74.4153C122.62 74.4357 122.586 74.4455 122.542 74.4455C122.496 74.4455 122.442 74.4209 122.38 74.3722C122.32 74.3234 122.243 74.2698 122.148 74.2125C122.056 74.1521 121.944 74.0972 121.811 74.0485C121.681 73.9998 121.522 73.9751 121.335 73.9751C121.159 73.9751 121.003 74.001 120.868 74.0528C120.733 74.1015 120.619 74.1693 120.526 74.2556C120.437 74.3419 120.369 74.4443 120.323 74.562C120.277 74.6773 120.254 74.8025 120.254 74.9375C120.254 75.1102 120.294 75.2538 120.372 75.3691C120.453 75.4813 120.559 75.5775 120.689 75.6583C120.822 75.739 120.971 75.8093 121.136 75.8697C121.304 75.9271 121.474 75.9875 121.648 76.051C121.824 76.1145 121.995 76.186 122.16 76.2668C122.328 76.3445 122.477 76.4437 122.607 76.5646C122.74 76.6854 122.846 76.8334 122.924 77.0091C123.005 77.1848 123.046 77.4006 123.046 77.6565C123.046 77.9271 123.002 78.1818 122.916 78.4204C122.829 78.6565 122.702 78.8618 122.534 79.0375C122.369 79.2133 122.164 79.3514 121.92 79.4519C121.679 79.5524 121.404 79.6029 121.095 79.6029C120.719 79.6029 120.375 79.5308 120.063 79.3871C119.754 79.2404 119.49 79.0431 119.271 78.7959L119.498 78.3988C119.52 78.3674 119.546 78.3415 119.576 78.3211C119.608 78.2983 119.643 78.2866 119.681 78.2866C119.738 78.2866 119.803 78.3199 119.876 78.3859C119.949 78.4494 120.04 78.5196 120.149 78.5973C120.259 78.675 120.392 78.7472 120.547 78.8131C120.704 78.8766 120.895 78.9081 121.12 78.9081C121.307 78.9081 121.473 78.8809 121.62 78.8261C121.766 78.7712 121.889 78.6954 121.989 78.5973C122.092 78.4968 122.171 78.3772 122.225 78.2391C122.279 78.101 122.306 77.9469 122.306 77.7773C122.306 77.5905 122.266 77.4376 122.184 77.3198C122.106 77.199 122.002 77.0985 121.872 77.0177C121.742 76.937 121.592 76.8698 121.425 76.8149C121.259 76.7576 121.088 76.6996 120.913 76.6423C120.739 76.5818 120.568 76.5128 120.4 76.4351C120.235 76.3574 120.088 76.2569 119.958 76.133C119.827 76.0091 119.722 75.8556 119.641 75.6712C119.562 75.4844 119.523 75.2538 119.523 74.9807C119.523 74.7618 119.562 74.5503 119.641 74.3463C119.722 74.1422 119.839 73.9609 119.99 73.8025C120.142 73.644 120.328 73.5176 120.551 73.4227C120.776 73.3277 121.033 73.2803 121.323 73.2803C121.648 73.2803 121.945 73.3351 122.213 73.4443C122.481 73.5534 122.716 73.7118 122.916 73.919L122.725 74.3161Z" fill="#39412F"/>
<path d="M129.179 73.3493V74.0528H127.298V79.5338H126.509V74.0528H124.62V73.3493H129.179Z" fill="#39412F"/>
<path d="M10.2262 52.8006C10.3346 52.9979 10.4275 53.2075 10.5049 53.4295C10.59 53.6432 10.6713 53.8611 10.7487 54.083C10.8261 53.8529 10.9074 53.635 10.9925 53.4295C11.0777 53.2157 11.1745 53.002 11.2828 52.7883L16.914 41.9248C17.0147 41.7357 17.1192 41.6207 17.2275 41.5796C17.3359 41.5384 17.4907 41.5179 17.6919 41.5179H19.3523V59.188H17.3784V46.2036C17.3784 46.031 17.3823 45.846 17.39 45.6487C17.3978 45.4514 17.4094 45.25 17.4249 45.0445L11.724 56.0929C11.5305 56.4629 11.2596 56.6478 10.9112 56.6478H10.5861C10.2378 56.6478 9.96694 56.4629 9.77339 56.0929L3.94483 45.0075C3.96805 45.2213 3.98352 45.4309 3.99127 45.6364C4.00675 45.8419 4.01449 46.031 4.01449 46.2036V59.188H2.04066V41.5179H3.701C3.90225 41.5179 4.05706 41.5384 4.16543 41.5796C4.27379 41.6207 4.37829 41.7357 4.47892 41.9248L10.2262 52.8006Z" fill="#39412F"/>
<path d="M39.4603 41.5179V43.4662H31.4721V49.3356H37.9392V51.2099H31.4721V57.2397H39.4603V59.188H29.208V41.5179H39.4603Z" fill="#39412F"/>
<path d="M57.0286 44.28C56.9589 44.4033 56.8853 44.4978 56.808 44.5636C56.7306 44.6211 56.6299 44.6499 56.5061 44.6499C56.3745 44.6499 56.2197 44.5801 56.0416 44.4403C55.8714 44.3005 55.6508 44.1485 55.3798 43.9841C55.1167 43.8114 54.7954 43.6553 54.4161 43.5155C54.0446 43.3757 53.5918 43.3059 53.0577 43.3059C52.5545 43.3059 52.1095 43.3799 51.7224 43.5278C51.3354 43.6676 51.0103 43.8608 50.7471 44.1074C50.4917 44.354 50.2982 44.6458 50.1666 44.9829C50.035 45.3117 49.9692 45.6693 49.9692 46.0556C49.9692 46.5489 50.0814 46.9599 50.3059 47.2887C50.5382 47.6093 50.84 47.8847 51.2116 48.1149C51.5908 48.345 52.0166 48.5465 52.4888 48.7191C52.9687 48.8835 53.4563 49.0562 53.9517 49.237C54.4549 49.4178 54.9425 49.6234 55.4147 49.8535C55.8946 50.0755 56.3203 50.3591 56.6918 50.7044C57.0711 51.0496 57.373 51.473 57.5975 51.9744C57.8297 52.4759 57.9458 53.0924 57.9458 53.8241C57.9458 54.5968 57.822 55.3243 57.5743 56.0066C57.3265 56.6807 56.9628 57.2685 56.4829 57.7699C56.0107 58.2714 55.4263 58.6659 54.7296 58.9537C54.0407 59.2414 53.2551 59.3853 52.3727 59.3853C51.2967 59.3853 50.3137 59.1798 49.4235 58.7687C48.5411 58.3495 47.7864 57.7864 47.1594 57.0794L47.8096 55.945C47.8716 55.8545 47.9451 55.7805 48.0302 55.723C48.1231 55.6572 48.2237 55.6244 48.3321 55.6244C48.4947 55.6244 48.6804 55.7189 48.8894 55.908C49.0984 56.0888 49.3577 56.2902 49.6673 56.5122C49.9847 56.7341 50.364 56.9396 50.8052 57.1287C51.2541 57.3096 51.7998 57.4 52.4423 57.4C52.9764 57.4 53.4524 57.3219 53.8704 57.1657C54.2884 57.0095 54.6406 56.7917 54.927 56.5122C55.2212 56.2244 55.4456 55.8833 55.6004 55.4887C55.7553 55.0941 55.8327 54.6544 55.8327 54.1693C55.8327 53.635 55.7165 53.1993 55.4843 52.8623C55.2598 52.517 54.9618 52.2293 54.5903 51.9991C54.2188 51.7689 53.793 51.5757 53.3131 51.4196C52.841 51.2551 52.3533 51.0907 51.8502 50.9263C51.3548 50.7537 50.8671 50.5564 50.3872 50.3344C49.9151 50.1125 49.4932 49.8247 49.1216 49.4713C48.7501 49.1178 48.4482 48.678 48.216 48.1519C47.9915 47.6175 47.8793 46.9599 47.8793 46.179C47.8793 45.5542 47.9915 44.95 48.216 44.3663C48.4482 43.7826 48.781 43.2647 49.2145 42.8126C49.648 42.3605 50.1821 41.9988 50.8168 41.7275C51.4593 41.4562 52.1946 41.3206 53.0229 41.3206C53.9517 41.3206 54.7993 41.4768 55.5656 41.7892C56.3319 42.1016 57.0014 42.5537 57.5743 43.1456L57.0286 44.28Z" fill="#39412F"/>
<path d="M82.0792 50.3591C82.0792 51.6826 81.8818 52.8992 81.4871 54.009C81.0923 55.1106 80.535 56.0601 79.8151 56.8574C79.0953 57.6548 78.2285 58.2755 77.2143 58.7194C76.2082 59.1551 75.0936 59.3729 73.8704 59.3729C72.6472 59.3729 71.5326 59.1551 70.5265 58.7194C69.5205 58.2755 68.6572 57.6548 67.9373 56.8574C67.2175 56.0601 66.6601 55.1106 66.2654 54.009C65.8706 52.8992 65.6732 51.6826 65.6732 50.3591C65.6732 49.0356 65.8706 47.8231 66.2654 46.7215C66.6601 45.6117 67.2175 44.6581 67.9373 43.8608C68.6572 43.0551 69.5205 42.4304 70.5265 41.9865C71.5326 41.5426 72.6472 41.3206 73.8704 41.3206C75.0936 41.3206 76.2082 41.5426 77.2143 41.9865C78.2285 42.4304 79.0953 43.0551 79.8151 43.8608C80.535 44.6581 81.0923 45.6117 81.4871 46.7215C81.8818 47.8231 82.0792 49.0356 82.0792 50.3591ZM79.7687 50.3591C79.7687 49.274 79.6293 48.2999 79.3507 47.4367C79.072 46.5735 78.6773 45.846 78.1664 45.2541C77.6555 44.6541 77.0361 44.1937 76.3087 43.8731C75.5813 43.5525 74.7685 43.3922 73.8704 43.3922C72.9805 43.3922 72.1712 43.5525 71.4438 43.8731C70.7164 44.1937 70.0929 44.6541 69.5744 45.2541C69.0636 45.846 68.6688 46.5735 68.3901 47.4367C68.1115 48.2999 67.9722 49.274 67.9722 50.3591C67.9722 51.4442 68.1115 52.4183 68.3901 53.2815C68.6688 54.1365 69.0636 54.864 69.5744 55.4641C70.0929 56.0559 70.7164 56.5122 71.4438 56.8328C72.1712 57.1452 72.9805 57.3014 73.8704 57.3014C74.7685 57.3014 75.5813 57.1452 76.3087 56.8328C77.0361 56.5122 77.6555 56.0559 78.1664 55.4641C78.6773 54.864 79.072 54.1365 79.3507 53.2815C79.6293 52.4183 79.7687 51.4442 79.7687 50.3591Z" fill="#39412F"/>
<path d="M98.3772 57.4493C98.8265 57.4493 99.2364 57.4288 99.6079 57.3877C99.9876 57.3383 100.343 57.2685 100.676 57.178C101.009 57.0876 101.323 56.9808 101.617 56.8574C101.911 56.7259 102.205 56.578 102.499 56.4135V52.517H99.9214C99.7745 52.517 99.6544 52.4718 99.5615 52.3814C99.4767 52.2909 99.4338 52.1799 99.4338 52.0484V50.692H104.542V57.474C104.124 57.7946 103.687 58.0741 103.23 58.3125C102.782 58.5509 102.298 58.7523 101.779 58.9167C101.268 59.0729 100.719 59.188 100.13 59.262C99.5423 59.3441 98.9037 59.3853 98.2146 59.3853C97.0071 59.3853 95.9006 59.1674 94.894 58.7317C93.8879 58.2878 93.0211 57.6713 92.2931 56.8821C91.5657 56.0847 90.9968 55.1311 90.5864 54.0214C90.1841 52.9116 89.9826 51.6908 89.9826 50.3591C89.9826 49.0109 90.18 47.782 90.5748 46.6722C90.9776 45.5624 91.5466 44.6129 92.2815 43.8238C93.0246 43.0264 93.9186 42.4098 94.9636 41.9741C96.0167 41.5384 97.1929 41.3206 98.4933 41.3206C99.1516 41.3206 99.7629 41.3741 100.328 41.4809C100.893 41.5796 101.416 41.7275 101.895 41.9248C102.383 42.1139 102.832 42.3482 103.242 42.6277C103.653 42.8989 104.036 43.2072 104.392 43.5525L103.753 44.6376C103.622 44.8596 103.451 44.9705 103.242 44.9705C103.118 44.9705 102.983 44.9253 102.836 44.8349C102.642 44.7198 102.426 44.5801 102.186 44.4156C101.946 44.2512 101.651 44.095 101.303 43.9471C100.963 43.7909 100.557 43.6593 100.084 43.5525C99.6195 43.4456 99.0663 43.3922 98.4236 43.3922C97.4872 43.3922 96.6396 43.5566 95.8809 43.8854C95.1227 44.206 94.476 44.6705 93.9419 45.2788C93.4078 45.8789 92.9979 46.6105 92.7111 47.4737C92.4249 48.3286 92.2815 49.2904 92.2815 50.3591C92.2815 51.4771 92.429 52.4759 92.7227 53.3555C93.0246 54.2268 93.4467 54.9667 93.9883 55.575C94.5305 56.1834 95.1726 56.6478 95.9157 56.9684C96.6588 57.289 97.4797 57.4493 98.3772 57.4493Z" fill="#39412F"/>
<path d="M127.308 59.188H125.044V51.1483H116.081V59.188H113.817V41.5179H116.081V49.3973H125.044V41.5179H127.308V59.188Z" fill="#39412F"/>
<path d="M147.427 41.5179V43.4662H139.439V49.3356H145.906V51.2099H139.439V57.2397H147.427V59.188H137.174V41.5179H147.427Z" fill="#39412F"/>
<path d="M171.927 50.3591C171.927 51.6826 171.729 52.8992 171.334 54.009C170.94 55.1106 170.382 56.0601 169.662 56.8574C168.943 57.6548 168.075 58.2755 167.062 58.7194C166.055 59.1551 164.94 59.3729 163.718 59.3729C162.495 59.3729 161.38 59.1551 160.374 58.7194C159.367 58.2755 158.505 57.6548 157.785 56.8574C157.065 56.0601 156.508 55.1106 156.113 54.009C155.718 52.8992 155.521 51.6826 155.521 50.3591C155.521 49.0356 155.718 47.8231 156.113 46.7215C156.508 45.6117 157.065 44.6581 157.785 43.8608C158.505 43.0551 159.367 42.4304 160.374 41.9865C161.38 41.5426 162.495 41.3206 163.718 41.3206C164.94 41.3206 166.055 41.5426 167.062 41.9865C168.075 42.4304 168.943 43.0551 169.662 43.8608C170.382 44.6581 170.94 45.6117 171.334 46.7215C171.729 47.8231 171.927 49.0356 171.927 50.3591ZM169.616 50.3591C169.616 49.274 169.477 48.2999 169.198 47.4367C168.919 46.5735 168.525 45.846 168.014 45.2541C167.503 44.6541 166.883 44.1937 166.156 43.8731C165.428 43.5525 164.615 43.3922 163.718 43.3922C162.827 43.3922 162.019 43.5525 161.291 43.8731C160.563 44.1937 159.94 44.6541 159.422 45.2541C158.911 45.846 158.516 46.5735 158.238 47.4367C157.959 48.2999 157.82 49.274 157.82 50.3591C157.82 51.4442 157.959 52.4183 158.238 53.2815C158.516 54.1365 158.911 54.864 159.422 55.4641C159.94 56.0559 160.563 56.5122 161.291 56.8328C162.019 57.1452 162.827 57.3014 163.718 57.3014C164.615 57.3014 165.428 57.1452 166.156 56.8328C166.883 56.5122 167.503 56.0559 168.014 55.4641C168.525 54.864 168.919 54.1365 169.198 53.2815C169.477 52.4183 169.616 51.4442 169.616 50.3591Z" fill="#39412F"/>
<path d="M63.1799 24.5907H109.838" stroke="#39412F" stroke-width="2"/>
<path d="M98.1688 0.00527954V3.49296L109.835 15.883V12.3953L98.1688 0.00527954Z" fill="#39412F"/>
<path d="M98.1688 0.00306702V3.49075L86.5023 15.8807V12.3931L98.1688 0.00306702Z" fill="#39412F"/>
<path d="M74.8452 0.00222778V3.48992L86.5116 15.8799V12.3922L74.8452 0.00222778Z" fill="#39412F"/>
<path d="M74.8451 0V3.48768L63.1787 15.8777V12.39L74.8451 0Z" fill="#39412F"/>
</svg>
