<svg xmlns="http://www.w3.org/2000/svg" viewBox="0 0 173 82"><path d="M43.827 79.534v-6.185h1.857c.357 0 .665.038.922.112.26.075.473.182.638.32.168.138.292.307.37.51.081.198.122.422.122.672a1.41 1.41 0 0 1-.272.833c-.09.121-.203.23-.342.324a1.813 1.813 0 0 1-.48.233c.426.09.747.252.964.488.217.236.325.547.325.932 0 .262-.046.5-.138.716-.09.216-.222.402-.398.557a1.828 1.828 0 0 1-.642.363c-.252.083-.54.125-.866.125h-2.06Zm.788-2.818v2.153h1.26c.225 0 .417-.027.577-.082.162-.055.295-.13.398-.229a.91.91 0 0 0 .232-.353c.048-.138.073-.29.073-.454 0-.319-.107-.57-.321-.755-.211-.187-.533-.28-.963-.28h-1.256Zm0-.596h1.04c.223 0 .415-.026.577-.078.163-.051.297-.124.403-.215a.836.836 0 0 0 .24-.333c.051-.132.077-.276.077-.431 0-.363-.103-.63-.31-.799-.205-.17-.525-.254-.958-.254h-1.069v2.11ZM53.838 73.35v.681h-2.796v2.054h2.264v.657h-2.264v2.11h2.796v.682H50.25v-6.185h3.588ZM61.181 76.444c0 .463-.07.885-.207 1.264-.138.38-.333.705-.585.976-.252.27-.555.48-.907.63-.352.147-.742.22-1.17.22h-2.178v-6.185h2.178c.428 0 .818.075 1.17.225.352.147.655.357.907.63.252.27.447.595.585.975.138.38.207.802.207 1.265Zm-.809 0c0-.38-.048-.72-.146-1.019a2.183 2.183 0 0 0-.414-.76 1.77 1.77 0 0 0-.65-.474 2.137 2.137 0 0 0-.85-.164h-1.386v4.83h1.386c.311 0 .595-.056.85-.165.254-.109.47-.266.65-.47.178-.207.317-.46.414-.76.098-.299.146-.639.146-1.018ZM68.122 73.28c.214 0 .409.038.585.112.176.073.328.169.455.29.13.12.232.262.305.423.076.158.12.323.13.496l-.451.095a.187.187 0 0 1-.138-.026c-.03-.02-.052-.056-.065-.108a1.063 1.063 0 0 0-.256-.453.761.761 0 0 0-.565-.229.922.922 0 0 0-.366.07.824.824 0 0 0-.459.483c-.04.109-.06.228-.06.358 0 .1.01.197.032.289.024.092.059.186.105.28.046.092.106.19.179.29a3.5 3.5 0 0 0 .264.31l1.674 1.809c.103-.193.184-.394.244-.605.062-.212.104-.425.126-.638a.225.225 0 0 1 .049-.13.142.142 0 0 1 .114-.047h.447a3.639 3.639 0 0 1-.15.975c-.096.32-.232.619-.411.898l1.22 1.312h-.7a.502.502 0 0 1-.19-.03.502.502 0 0 1-.163-.126l-.586-.625c-.254.262-.548.469-.881.621-.331.153-.695.229-1.094.229a1.813 1.813 0 0 1-1.198-.453 1.732 1.732 0 0 1-.394-.544c-.101-.213-.15-.453-.15-.72 0-.202.03-.392.093-.57a1.969 1.969 0 0 1 .666-.911c.154-.12.323-.225.508-.31a2.623 2.623 0 0 1-.366-.648 1.837 1.837 0 0 1-.118-.652c0-.21.035-.407.106-.591a1.422 1.422 0 0 1 .805-.803c.195-.08.412-.12.654-.12Zm-1.613 4.545c0 .187.032.352.097.496a1.12 1.12 0 0 0 .618.583c.135.049.273.073.414.073.303 0 .576-.06.817-.177.241-.118.454-.275.638-.47l-1.719-1.843a1.814 1.814 0 0 0-.65.591 1.367 1.367 0 0 0-.215.747ZM75.755 79.534v-6.185h1.857c.358 0 .665.038.922.112.26.075.474.182.638.32.169.138.292.307.37.51.082.198.122.422.122.672a1.398 1.398 0 0 1-.272.833c-.09.121-.203.23-.341.324a1.805 1.805 0 0 1-.48.233c.426.09.747.252.963.488.217.236.325.547.325.932 0 .262-.046.5-.138.716-.09.216-.222.402-.398.557a1.823 1.823 0 0 1-.642.363c-.252.083-.54.125-.866.125h-2.06Zm.788-2.818v2.153h1.26c.225 0 .417-.027.577-.082.163-.055.296-.13.398-.229a.908.908 0 0 0 .232-.353c.049-.138.073-.29.073-.454 0-.319-.107-.57-.321-.755-.211-.187-.532-.28-.963-.28h-1.256Zm0-.596h1.04c.223 0 .415-.026.578-.078.162-.051.296-.124.402-.215a.83.83 0 0 0 .24-.333 1.18 1.18 0 0 0 .077-.431c0-.363-.103-.63-.309-.799-.206-.17-.525-.254-.959-.254h-1.069v2.11ZM83.044 76.953v2.58h-.784V73.35h1.646c.368 0 .686.04.954.121.269.078.49.191.663.341.176.15.306.331.39.544.084.21.126.446.126.708 0 .218-.032.423-.097.612a1.642 1.642 0 0 1-.736.898 2.126 2.126 0 0 1-.602.242c.098.06.184.148.26.263l1.7 2.456h-.7a.34.34 0 0 1-.317-.177l-1.511-2.21a.432.432 0 0 0-.15-.147.495.495 0 0 0-.245-.047h-.597Zm0-.609h.825c.23 0 .432-.028.606-.086.175-.06.322-.143.438-.25.12-.11.209-.239.269-.389.06-.15.089-.315.089-.496 0-.368-.115-.646-.345-.833-.228-.187-.568-.28-1.02-.28h-.862v2.334ZM92.159 73.35v.681h-2.796v2.054h2.263v.657h-2.263v2.11h2.796v.682H88.57v-6.185h3.589ZM99.245 79.534h-.61a.252.252 0 0 1-.17-.056.353.353 0 0 1-.098-.143l-.545-1.493H95.21l-.544 1.493a.329.329 0 0 1-.098.138.25.25 0 0 1-.17.06h-.61l2.328-6.184h.801l2.329 6.185Zm-3.816-2.296h2.174l-.915-2.516a4.992 4.992 0 0 1-.174-.583 7.503 7.503 0 0 1-.171.587l-.914 2.512ZM102.004 76.06h.297a.627.627 0 0 0 .244-.04.509.509 0 0 0 .175-.142l1.938-2.33a.61.61 0 0 1 .171-.151.441.441 0 0 1 .215-.048h.671l-2.219 2.663a1.818 1.818 0 0 1-.163.168.654.654 0 0 1-.158.113.56.56 0 0 1 .199.116c.057.052.117.117.179.194l2.316 2.93h-.683a.565.565 0 0 1-.13-.012.288.288 0 0 1-.162-.09 1.143 1.143 0 0 1-.065-.074l-2.012-2.456a.72.72 0 0 0-.175-.15.335.335 0 0 0-.117-.035.866.866 0 0 0-.163-.013h-.358v2.83h-.784V73.35h.784v2.71ZM111.42 73.35v.681h-2.796v2.162h2.39v.682h-2.39v2.659h-.792v-6.185h3.588ZM117.848 79.534h-.61a.25.25 0 0 1-.17-.056.354.354 0 0 1-.098-.143l-.545-1.493h-2.613l-.544 1.493a.328.328 0 0 1-.098.138.247.247 0 0 1-.17.06h-.61l2.329-6.184h.8l2.329 6.185Zm-3.816-2.296h2.174l-.914-2.516a4.854 4.854 0 0 1-.175-.583 8.488 8.488 0 0 1-.171.587l-.914 2.512ZM122.725 74.316a.355.355 0 0 1-.077.1.172.172 0 0 1-.106.03c-.046 0-.1-.025-.162-.074a2.045 2.045 0 0 0-.232-.16 1.644 1.644 0 0 0-.337-.163 1.364 1.364 0 0 0-.476-.074 1.3 1.3 0 0 0-.467.078.99.99 0 0 0-.342.203.857.857 0 0 0-.203.306c-.046.115-.069.24-.069.376 0 .172.04.316.118.431.081.112.187.209.317.29.133.08.282.15.447.21.168.058.338.118.512.182.176.064.347.135.512.216.168.078.317.177.447.298.133.12.239.268.317.444.081.176.122.392.122.647 0 .271-.044.526-.13.764a1.735 1.735 0 0 1-.996 1.031c-.241.101-.516.152-.825.152-.376 0-.72-.072-1.032-.216a2.448 2.448 0 0 1-.792-.591l.227-.397a.303.303 0 0 1 .078-.078.177.177 0 0 1 .105-.034c.057 0 .122.033.195.099.073.063.164.134.273.211.11.078.243.15.398.216.157.064.348.095.573.095.187 0 .353-.027.5-.082a1.007 1.007 0 0 0 .605-.587 1.26 1.26 0 0 0 .081-.462c0-.186-.04-.34-.122-.457a.98.98 0 0 0-.312-.302c-.13-.081-.28-.148-.447-.203a33.843 33.843 0 0 0-.512-.173 5.611 5.611 0 0 1-.513-.207 1.661 1.661 0 0 1-.442-.302 1.399 1.399 0 0 1-.317-.462 1.777 1.777 0 0 1-.118-.69 1.68 1.68 0 0 1 .467-1.178 1.67 1.67 0 0 1 .561-.38c.225-.095.482-.143.772-.143.325 0 .622.055.89.164.268.11.503.268.703.475l-.191.397ZM129.179 73.35v.703h-1.881v5.48h-.789v-5.48h-1.889v-.704h4.559ZM10.226 52.8c.109.198.201.408.279.63.085.213.166.431.244.653a10.253 10.253 0 0 1 .534-1.295l5.631-10.863c.1-.19.205-.304.313-.345.109-.042.264-.062.465-.062h1.66v17.67h-1.974V46.204a14.282 14.282 0 0 1 .047-1.16l-5.701 11.049c-.194.37-.464.555-.813.555h-.325c-.348 0-.62-.185-.813-.555L3.945 45.007c.023.214.039.424.046.63.016.205.023.394.023.567v12.984H2.041v-17.67H3.7c.201 0 .356.02.464.062.109.04.213.156.314.345L10.226 52.8ZM39.46 41.518v1.948h-7.988v5.87h6.467v1.874h-6.467v6.03h7.988v1.948H29.208v-17.67H39.46ZM57.029 44.28c-.07.123-.144.218-.221.284a.494.494 0 0 1-.302.086c-.132 0-.286-.07-.464-.21-.17-.14-.391-.291-.662-.456a4.757 4.757 0 0 0-.964-.468c-.371-.14-.824-.21-1.358-.21-.504 0-.949.074-1.336.222-.387.14-.712.333-.975.58a2.43 2.43 0 0 0-.58.875 2.86 2.86 0 0 0-.198 1.073c0 .493.112.904.337 1.233.232.32.534.596.906.826.379.23.805.431 1.277.604.48.164.967.337 1.463.518.503.18.99.386 1.463.616.48.222.905.506 1.277.851.38.346.681.769.905 1.27.233.502.349 1.118.349 1.85 0 .773-.124 1.5-.372 2.183a4.982 4.982 0 0 1-2.845 2.947c-.688.287-1.474.431-2.356.431-1.076 0-2.06-.205-2.95-.616a7.01 7.01 0 0 1-2.264-1.69l.65-1.134a.83.83 0 0 1 .221-.222.512.512 0 0 1 .302-.099c.163 0 .348.095.557.284.21.18.469.382.778.604.318.222.697.428 1.138.617.45.18.995.271 1.637.271a4.06 4.06 0 0 0 1.428-.234c.418-.156.77-.374 1.057-.654a2.89 2.89 0 0 0 .673-1.023c.155-.395.233-.835.233-1.32 0-.534-.116-.97-.349-1.307A2.818 2.818 0 0 0 54.59 52a5.854 5.854 0 0 0-1.277-.58c-.472-.164-.96-.328-1.463-.493-.495-.172-.983-.37-1.463-.592a4.764 4.764 0 0 1-1.265-.863 4.053 4.053 0 0 1-.906-1.32c-.224-.534-.337-1.191-.337-1.972 0-.625.113-1.229.337-1.813a4.773 4.773 0 0 1 .998-1.553 4.801 4.801 0 0 1 1.603-1.086c.642-.27 1.378-.406 2.206-.406.929 0 1.776.156 2.543.468a5.825 5.825 0 0 1 2.008 1.357l-.545 1.134ZM82.08 50.36c0 1.323-.198 2.54-.593 3.649-.395 1.102-.952 2.051-1.672 2.848a7.519 7.519 0 0 1-2.6 1.862c-1.007.436-2.121.654-3.345.654-1.223 0-2.337-.218-3.344-.654a7.552 7.552 0 0 1-2.589-1.862c-.72-.797-1.277-1.746-1.672-2.848-.394-1.11-.592-2.326-.592-3.65 0-1.323.198-2.536.592-3.638.395-1.11.953-2.063 1.672-2.86a7.476 7.476 0 0 1 2.59-1.874c1.006-.444 2.12-.666 3.343-.666 1.224 0 2.338.222 3.344.666a7.444 7.444 0 0 1 2.601 1.874c.72.797 1.277 1.75 1.672 2.86.395 1.102.592 2.315.592 3.638Zm-2.311 0c0-1.086-.14-2.06-.418-2.923-.279-.863-.674-1.591-1.185-2.183a5.12 5.12 0 0 0-1.857-1.38c-.728-.322-1.54-.482-2.439-.482-.89 0-1.699.16-2.426.481-.728.32-1.351.781-1.87 1.381-.51.592-.905 1.32-1.184 2.183-.278.863-.418 1.837-.418 2.922 0 1.085.14 2.06.418 2.922.279.855.674 1.583 1.184 2.183a5.293 5.293 0 0 0 1.87 1.369c.727.312 1.537.468 2.426.468.898 0 1.711-.156 2.439-.468a5.183 5.183 0 0 0 1.857-1.369c.511-.6.906-1.328 1.185-2.182.278-.864.418-1.838.418-2.923ZM98.377 57.45c.45 0 .86-.021 1.23-.062.38-.05.736-.12 1.069-.21.333-.09.647-.197.941-.32.294-.132.588-.28.882-.444v-3.897h-2.578a.495.495 0 0 1-.36-.136.47.47 0 0 1-.127-.333v-1.356h5.108v6.782a8.97 8.97 0 0 1-2.763 1.443 9.822 9.822 0 0 1-1.649.345c-.588.082-1.226.123-1.915.123-1.208 0-2.314-.218-3.321-.653a7.754 7.754 0 0 1-2.6-1.85c-.728-.797-1.297-1.75-1.708-2.86-.402-1.11-.603-2.331-.603-3.663 0-1.348.197-2.577.592-3.687.403-1.11.972-2.06 1.706-2.848a7.63 7.63 0 0 1 2.683-1.85c1.053-.436 2.229-.653 3.53-.653.658 0 1.269.053 1.834.16a7.49 7.49 0 0 1 1.567.444c.488.189.937.423 1.347.703.411.27.794.58 1.15.925l-.639 1.085c-.131.222-.302.333-.511.333a.787.787 0 0 1-.406-.136c-.194-.115-.41-.255-.65-.42a5.099 5.099 0 0 0-.883-.468 6.212 6.212 0 0 0-1.219-.395c-.465-.106-1.018-.16-1.66-.16-.937 0-1.784.165-2.543.493a5.283 5.283 0 0 0-1.94 1.394c-.533.6-.943 1.331-1.23 2.195-.286.855-.43 1.816-.43 2.885 0 1.118.148 2.117.442 2.996.302.872.724 1.612 1.265 2.22a5.438 5.438 0 0 0 1.928 1.393c.743.321 1.564.481 2.461.481ZM127.308 59.188h-2.264v-8.04h-8.963v8.04h-2.264v-17.67h2.264v7.88h8.963v-7.88h2.264v17.67ZM147.427 41.518v1.948h-7.988v5.87h6.467v1.874h-6.467v6.03h7.988v1.948h-10.253v-17.67h10.253ZM171.927 50.36c0 1.323-.198 2.54-.593 3.649-.394 1.102-.952 2.051-1.672 2.848a7.52 7.52 0 0 1-2.6 1.862c-1.007.436-2.122.654-3.344.654-1.223 0-2.338-.218-3.344-.654a7.543 7.543 0 0 1-2.589-1.862c-.72-.797-1.277-1.746-1.672-2.848-.395-1.11-.592-2.326-.592-3.65 0-1.323.197-2.536.592-3.638.395-1.11.952-2.063 1.672-2.86a7.467 7.467 0 0 1 2.589-1.874c1.006-.444 2.121-.666 3.344-.666 1.222 0 2.337.222 3.344.666a7.445 7.445 0 0 1 2.6 1.874c.72.797 1.278 1.75 1.672 2.86.395 1.102.593 2.315.593 3.638Zm-2.311 0c0-1.086-.139-2.06-.418-2.923-.279-.863-.673-1.591-1.184-2.183a5.126 5.126 0 0 0-1.858-1.38c-.728-.322-1.541-.482-2.438-.482-.891 0-1.699.16-2.427.481a5.216 5.216 0 0 0-1.869 1.381c-.511.592-.906 1.32-1.184 2.183-.279.863-.418 1.837-.418 2.922 0 1.085.139 2.06.418 2.922.278.855.673 1.583 1.184 2.183a5.281 5.281 0 0 0 1.869 1.369c.728.312 1.536.468 2.427.468.897 0 1.71-.156 2.438-.468a5.189 5.189 0 0 0 1.858-1.369c.511-.6.905-1.328 1.184-2.182.279-.864.418-1.838.418-2.923Z" class="fill-current"/><path d="M63.18 24.59h46.658" class="stroke-current" stroke-width="2"/><path d="M98.169.005v3.488l11.666 12.39v-3.488L98.169.005Z" class="fill-current"/><path d="M98.169.003v3.488L86.502 15.88v-3.488L98.17.003Z" class="fill-current"/><path d="M74.845.002V3.49l11.667 12.39v-3.488L74.845.002ZM74.845 0v3.488L63.18 15.878V12.39L74.845 0Z" class="fill-current"/></svg>