<svg xmlns="http://www.w3.org/2000/svg" viewBox="0 0 18 18"><path d="M12.281 2.437a3.291 3.291 0 0 1 3.282 3.282v6.562a3.291 3.291 0 0 1-3.282 3.282H5.72a3.291 3.291 0 0 1-3.282-3.282V5.72A3.291 3.291 0 0 1 5.72 2.437h6.562Zm0-1.312H5.72a4.607 4.607 0 0 0-4.594 4.594v6.562a4.607 4.607 0 0 0 4.594 4.594h6.562a4.607 4.607 0 0 0 4.594-4.594V5.72a4.607 4.607 0 0 0-4.594-4.594Z" class="fill-current"/><path d="M13.265 5.719a.984.984 0 1 1 0-1.97.984.984 0 0 1 0 1.97ZM9 6.375a2.625 2.625 0 1 1 0 5.25 2.625 2.625 0 0 1 0-5.25Zm0-1.312a3.938 3.938 0 1 0 0 7.875 3.938 3.938 0 0 0 0-7.875Z" class="fill-current"/></svg>