<svg xmlns="http://www.w3.org/2000/svg" viewBox="0 0 21 20" aria-labelledby="logoTitle logoDesc" role="img"><title id="logoTitle">Refrigerator</title><desc id="logoDesc">Refrigerator Icon</desc><path d="M14.938 1.531H6.169a1.31 1.31 0 0 0-1.31 1.307v13.537a1.307 1.307 0 0 0 1.058 1.28v.958a.3.3 0 0 0 .3.3h8.67a.3.3 0 0 0 .3-.3v-.959a1.306 1.306 0 0 0 1.06-1.28V2.839a1.31 1.31 0 0 0-1.31-1.307Zm-8.769.6h8.769a.708.708 0 0 1 .71.707v4.594H5.458V2.838a.707.707 0 0 1 .711-.707Zm8.418 16.183H6.52v-.633h8.067v.633Zm.35-1.232H6.17a.707.707 0 0 1-.71-.707V8.032h10.19v8.343a.708.708 0 0 1-.711.707Z" fill="#39412F"/><path d="M6.771 5.865a.3.3 0 0 0 .3-.3V4.23a.3.3 0 0 0-.6 0v1.336a.3.3 0 0 0 .3.3ZM6.771 9.923a.3.3 0 0 0-.3.3v2.334a.3.3 0 1 0 .6 0v-2.335a.3.3 0 0 0-.3-.3Z" fill="#39412F"/></svg>